<svg xmlns="http://www.w3.org/2000/svg" viewBox="0 0 1130.84 363.86"><defs><style>.a{fill:#e52565;}.b{fill:#001c38;}.c{fill:#ededed;}</style></defs><circle class="a" cx="960.12" cy="176.7" r="151.64"/><path class="b" d="M533.82,953.6c99.41-1.64-6.06-136.23,156.68-130.1s230.86,101,397.84,45.25,690,267.88,346.2,312-574.19-157.46-627.25-48.85S177.69,959.49,533.82,953.6Z" transform="translate(-418.36 -823.3)"/><path class="c" d="M573.8,1074.18c-.63,0-1-.39-1.18-1.18L540,910.69c-.16-.63.15-.94.94-.94h26.7a1.11,1.11,0,0,1,1.18.94l19.37,108.21,18.9-108.21a1.11,1.11,0,0,1,1.18-.94h26.47c.78,0,1.1.31.94.94L603.57,1073c-.16.79-.55,1.18-1.18,1.18Z" transform="translate(-418.36 -823.3)"/><path class="c" d="M650.82,1074.18a1,1,0,0,1-1.18-1.18l.24-162.31a.83.83,0,0,1,.94-.94h26.46a.84.84,0,0,1,1,.94l.23,162.31c0,.79-.31,1.18-.94,1.18Z" transform="translate(-418.36 -823.3)"/><path class="c" d="M702.56,1074.18c-.63,0-.95-.39-.95-1.18l.24-162.07a1,1,0,0,1,1.18-1.18h26.22a1,1,0,0,1,1.19,1.18l-.24,134.19h48.67a1,1,0,0,1,1.18,1.18V1073a1,1,0,0,1-1.18,1.18Z" transform="translate(-418.36 -823.3)"/><path class="c" d="M796.35,1074.18c-.63,0-1-.39-1-1.18l.24-162.07a1,1,0,0,1,1.18-1.18h26.23a1,1,0,0,1,1.18,1.18L824,1045.12h48.67a1,1,0,0,1,1.18,1.18V1073a1,1,0,0,1-1.18,1.18Z" transform="translate(-418.36 -823.3)"/><path class="c" d="M890.14,1074.18c-.63,0-.94-.39-.94-1.18l.23-162.31a.84.84,0,0,1,1-.94h75.84c.62,0,.94.39.94,1.18v26.46a.83.83,0,0,1-.94.94H917.78v36.86h48.44a.84.84,0,0,1,.94.94l.24,26.7a.84.84,0,0,1-.95.95H917.78v41.34h48.67c.63,0,.95.4.95,1.18v26.94a.84.84,0,0,1-.95.94Z" transform="translate(-418.36 -823.3)"/><path class="c" d="M989.61,1074.18a1,1,0,0,1-1.19-1.18l.48-162.31a.83.83,0,0,1,.94-.94h45.36q21.73,0,34.38,13.23t12.64,35.91q0,16.77-6.62,29.06a49.07,49.07,0,0,1-17.24,18.9,43,43,0,0,1-23.16,6.61h-18V1073a1,1,0,0,1-1.18,1.18Zm27.64-89.3h18q7.56,0,13.12-7.21t5.55-18.78q0-9.23-5-15.12t-13.71-5.91l-18,.24Z" transform="translate(-418.36 -823.3)"/><path class="c" d="M1099.46,1074.18a1,1,0,0,1-1.18-1.18l.24-162.31a.83.83,0,0,1,.94-.94h26.46a.84.84,0,0,1,.95.94l.24,162.31c0,.79-.32,1.18-.95,1.18Z" transform="translate(-418.36 -823.3)"/><path class="c" d="M1150,1074.18q-1.89,0-1.89-1.65l-.23-160.89a1.67,1.67,0,0,1,1.89-1.89h21.26l39.93,93.08-1.19-91.19q0-1.89,2.13-1.89h23.39c1,0,1.42.63,1.42,1.89l.23,161.12c0,1-.39,1.42-1.18,1.42H1215l-40.87-86.94,1.65,85c0,1.26-.7,1.89-2.12,1.89Z" transform="translate(-418.36 -823.3)"/><path class="c" d="M1328.63,1074.18a1,1,0,0,1-1.18-1.18l.23-162.31a.84.84,0,0,1,1-.94h26.46a.83.83,0,0,1,.94.94l.24,162.31c0,.79-.32,1.18-1,1.18Z" transform="translate(-418.36 -823.3)"/><path class="c" d="M1400.68,1074.18c-.63,0-.94-.39-.94-1.18V938.33H1369a1,1,0,0,1-1.19-1.18l.24-26.46a.83.83,0,0,1,1-.94h89.77c.79,0,1.19.31,1.19.94v26.46c0,.79-.32,1.18-1,1.18h-31l.24,134.67c0,.79-.32,1.18-.95,1.18Z" transform="translate(-418.36 -823.3)"/></svg>