<svg id="Layer_1" data-name="Layer 1" xmlns="http://www.w3.org/2000/svg" width="1489.61" height="724.03" viewBox="0 0 1489.61 724.03"><defs><style>.cls-1,.cls-2,.cls-3{fill:none;stroke-miterlimit:10;stroke-width:32.68px;}.cls-1{stroke:#000;}.cls-2{stroke:#0fe9f4;}.cls-3{stroke:#f41c1c;}</style></defs><line class="cls-1" x1="409.79" y1="12.92" x2="48.02" y2="293.01"/><line class="cls-2" x1="371.78" y1="53.27" x2="10" y2="333.35"/><line class="cls-1" x1="342.11" y1="608.11" x2="66.69" y2="290.67"/><line class="cls-2" x1="304.09" y1="648.45" x2="28.67" y2="331.02"/><line class="cls-3" x1="402.79" y1="43.26" x2="41.01" y2="323.35"/><line class="cls-3" x1="335.1" y1="638.45" x2="59.69" y2="321.02"/><line class="cls-1" x1="1107.34" y1="97.85" x2="1443.33" y2="603.52"/><line class="cls-1" x1="903.92" y1="691.62" x2="1426.99" y2="596.51"/><line class="cls-2" x1="1123.68" y1="72.17" x2="1459.66" y2="577.84"/><line class="cls-2" x1="920.26" y1="665.94" x2="1443.33" y2="570.84"/><line class="cls-3" x1="1140.02" y1="114.19" x2="1476" y2="619.85"/><line class="cls-3" x1="936.6" y1="707.96" x2="1459.66" y2="612.85"/><path d="M340.64,725.17a45,45,0,0,1-22.89-5.77,40.46,40.46,0,0,1-15.63-16.06,48.34,48.34,0,0,1-5.61-23.52,9.56,9.56,0,0,1,2.76-7.09,9.93,9.93,0,0,1,13.7,0,9.78,9.78,0,0,1,2.67,7.09,31,31,0,0,0,3.21,14.36,24.42,24.42,0,0,0,8.83,9.73,24,24,0,0,0,13,3.5,24.46,24.46,0,0,0,13.05-3.5,24.13,24.13,0,0,0,8.92-9.73,31,31,0,0,0,3.22-14.36v-94.3a9.74,9.74,0,0,1,2.67-7.09,9,9,0,0,1,6.71-2.74,9.42,9.42,0,0,1,9.74,9.83v94.3a47.72,47.72,0,0,1-5.7,23.52,41.27,41.27,0,0,1-15.63,16.06A44.87,44.87,0,0,1,340.64,725.17Z" transform="translate(-9 -389.56)"/><path d="M410.51,723.28a8.74,8.74,0,0,1-7.91-4.54,10,10,0,0,1-.55-9.63l51.66-126.8q2.76-6.62,9-6.62,6.63,0,9,6.62l51.85,127.17a10.25,10.25,0,0,1-.64,9.55,8.84,8.84,0,0,1-8,4.25,9.49,9.49,0,0,1-5.24-1.61,9.06,9.06,0,0,1-3.59-4.44l-45.59-116.4h5.14l-46.33,116.4a9.43,9.43,0,0,1-3.77,4.54A9.58,9.58,0,0,1,410.51,723.28Zm9.74-32.5,7.36-16.26h72.07L507,690.78Z" transform="translate(-9 -389.56)"/><path d="M555,723.28a9.1,9.1,0,0,1-6.8-2.84,9.62,9.62,0,0,1-2.76-7V585.52a9.56,9.56,0,0,1,2.76-7.09,9.28,9.28,0,0,1,6.8-2.74h33.09a49.31,49.31,0,0,1,24.46,6A43,43,0,0,1,629.21,598q6,10.39,6,24.19a43.75,43.75,0,0,1-6,22.86,41.88,41.88,0,0,1-16.64,15.69,51.3,51.3,0,0,1-24.46,5.67H564.58v47.05a9.79,9.79,0,0,1-2.67,7A9,9,0,0,1,555,723.28Zm9.56-75h23.53A32.13,32.13,0,0,0,603,645a24.93,24.93,0,0,0,13.79-22.77,29.16,29.16,0,0,0-3.68-14.74,26.17,26.17,0,0,0-10.11-10,30.14,30.14,0,0,0-14.9-3.59H564.58Zm66.74,75a9.82,9.82,0,0,1-4.69-1.13,9.44,9.44,0,0,1-3.58-3.6L590,663.75l18.57-5.48,30.16,49.89q3.3,5.49.91,10.3T631.32,723.28Z" transform="translate(-9 -389.56)"/><path d="M728,725.17a76.33,76.33,0,0,1-29.6-5.58,67,67,0,0,1-23.08-15.68,71.32,71.32,0,0,1-15-24,89.76,89.76,0,0,1,0-60.94,71.51,71.51,0,0,1,15-23.91,67.12,67.12,0,0,1,23.08-15.68,81.06,81.06,0,0,1,59.11,0,68.24,68.24,0,0,1,23.07,15.68A70.81,70.81,0,0,1,795.69,619a89.76,89.76,0,0,1,0,60.94,70.62,70.62,0,0,1-15.08,24,68.09,68.09,0,0,1-23.07,15.68A75.73,75.73,0,0,1,728,725.17Zm0-17.76A53.46,53.46,0,0,0,750,703a52.89,52.89,0,0,0,17.38-12.28,54.36,54.36,0,0,0,11.3-18.42,68,68,0,0,0,0-45.73,54.41,54.41,0,0,0-11.3-18.43A52.07,52.07,0,0,0,750,595.91a57.78,57.78,0,0,0-43.94,0,51.11,51.11,0,0,0-17.29,12.19,56.36,56.36,0,0,0-11.3,18.43,66.57,66.57,0,0,0,0,45.73,56.31,56.31,0,0,0,11.3,18.42A51.91,51.91,0,0,0,706.06,703,53.46,53.46,0,0,0,728,707.41Z" transform="translate(-9 -389.56)"/><path d="M840.55,723.28a9.11,9.11,0,0,1-6.8-2.84,9.62,9.62,0,0,1-2.76-7V585.52a9.56,9.56,0,0,1,2.76-7.09,9.29,9.29,0,0,1,6.8-2.74h33.28a74.29,74.29,0,0,1,28.77,5.39,66.22,66.22,0,0,1,22.53,15.3,68.79,68.79,0,0,1,14.7,23.34,88.3,88.3,0,0,1,0,59.43,68.55,68.55,0,0,1-14.7,23.44,66.22,66.22,0,0,1-22.53,15.3,74.29,74.29,0,0,1-28.77,5.39Zm9.56-17.39h23.72q15.45,0,27.3-7.27a51.28,51.28,0,0,0,18.66-20q6.81-12.76,6.81-29.2,0-16.62-6.81-29.29a50.75,50.75,0,0,0-18.66-19.84q-11.85-7.18-27.3-7.18H850.11Z" transform="translate(-9 -389.56)"/><path d="M464.07,908.19a9.16,9.16,0,0,1-6.72-2.82,9.44,9.44,0,0,1-2.86-7l-.28-127.94a9.46,9.46,0,0,1,2.84-7,9.46,9.46,0,0,1,13.51,0,9.61,9.61,0,0,1,2.78,7l.12,56.7,60.72-62.68a14.35,14.35,0,0,1,4-3.13,9,9,0,0,1,3.86-.86q4.59,0,6.62,2.82a8.94,8.94,0,0,1,1.49,6.71,13.05,13.05,0,0,1-3.48,7.09l-46.78,48.48,47.95,66.79a10.12,10.12,0,0,1,1.85,6.89,11,11,0,0,1-2.56,6.25,7.42,7.42,0,0,1-5.88,2.56,8.9,8.9,0,0,1-7.91-4.14l-46.66-64.72L473.51,852.8l.1,45.55a9.66,9.66,0,0,1-2.74,7A9.1,9.1,0,0,1,464.07,908.19Z" transform="translate(-9 -389.56)"/><path d="M636.17,909.72a76.67,76.67,0,0,1-29.62-5.51,67.06,67.06,0,0,1-23.1-15.64,71.23,71.23,0,0,1-15-24,89.68,89.68,0,0,1-.13-60.94,71.57,71.57,0,0,1,14.93-23.94,67,67,0,0,1,23-15.73,81.16,81.16,0,0,1,59.12-.13,68.21,68.21,0,0,1,23.1,15.64,70.66,70.66,0,0,1,15.13,23.87,89.68,89.68,0,0,1,.13,60.94,70.76,70.76,0,0,1-15,24,68.34,68.34,0,0,1-23,15.73A76.06,76.06,0,0,1,636.17,909.72Zm0-17.77a52.87,52.87,0,0,0,39.31-16.8,54.52,54.52,0,0,0,11.27-18.45,68.18,68.18,0,0,0-.1-45.74,54.35,54.35,0,0,0-11.35-18.39,51.82,51.82,0,0,0-17.4-12.16,57.66,57.66,0,0,0-43.94.1,50.88,50.88,0,0,0-17.26,12.22,56.48,56.48,0,0,0-11.27,18.45,66.72,66.72,0,0,0,.1,45.73,56.23,56.23,0,0,0,11.35,18.4,52,52,0,0,0,17.31,12.25A53.48,53.48,0,0,0,636.13,892Z" transform="translate(-9 -389.56)"/><path d="M748.68,907.59a9.15,9.15,0,0,1-6.8-2.82,9.65,9.65,0,0,1-2.78-7l-.27-127.93a9.59,9.59,0,0,1,2.74-7.1,9.34,9.34,0,0,1,6.8-2.75,9.15,9.15,0,0,1,6.9,2.73,9.7,9.7,0,0,1,2.68,7.08l.12,54.23,85.31-.18-.12-54.24a9.57,9.57,0,0,1,2.75-7.09,9.24,9.24,0,0,1,6.79-2.75,8.89,8.89,0,0,1,6.81,2.72,9.93,9.93,0,0,1,2.59,7.08l.27,127.94a10,10,0,0,1-2.55,7,8.72,8.72,0,0,1-6.8,2.85,9.08,9.08,0,0,1-6.81-2.82,9.6,9.6,0,0,1-2.77-7l-.12-56.31-85.32.18.12,56.31a9.83,9.83,0,0,1-2.65,7A9.06,9.06,0,0,1,748.68,907.59Z" transform="translate(-9 -389.56)"/><path d="M908.64,907.25a8.84,8.84,0,0,1-6.72-2.83,9.82,9.82,0,0,1-2.68-7L899,769.5a9.63,9.63,0,0,1,2.74-7,8.88,8.88,0,0,1,6.62-2.85,9.11,9.11,0,0,1,6.81,2.82,9.67,9.67,0,0,1,2.77,7l.25,118.11,66.56-.14a9.13,9.13,0,0,1,6.81,2.82,10.25,10.25,0,0,1,0,14,9.08,9.08,0,0,1-6.8,2.85Z" transform="translate(-9 -389.56)"/><path d="M1026.86,907a9.07,9.07,0,0,1-6.8-2.82,9.61,9.61,0,0,1-2.78-7L1017,769.25a9.56,9.56,0,0,1,2.74-7.09,9.26,9.26,0,0,1,6.8-2.75l83.11-.18a9.21,9.21,0,0,1,6.8,2.54,9,9,0,0,1,2.59,6.7,8.46,8.46,0,0,1-2.56,6.43,9.42,9.42,0,0,1-6.8,2.47l-73.54.16.1,45.92,52.77-.12a9.25,9.25,0,0,1,6.8,2.54,9.54,9.54,0,0,1,0,13,9.24,9.24,0,0,1-6.8,2.57l-52.76.11.1,47.24,73.54-.16a9.5,9.5,0,0,1,6.81,2.45,8.48,8.48,0,0,1,2.59,6.42,9,9,0,0,1-2.56,6.71,9.26,9.26,0,0,1-6.8,2.57Z" transform="translate(-9 -389.56)"/><path d="M1155.57,906.72a9.15,9.15,0,0,1-6.81-2.82,9.62,9.62,0,0,1-2.77-7L1145.71,769a9.55,9.55,0,0,1,2.75-7.09,9.27,9.27,0,0,1,6.79-2.76l33.1-.07a49.31,49.31,0,0,1,24.46,5.9,43,43,0,0,1,16.68,16.31q6,10.38,6,24.18a43.85,43.85,0,0,1-5.93,22.88A41.88,41.88,0,0,1,1213,844.05a51.36,51.36,0,0,1-24.44,5.72l-23.53.05.1,47a9.84,9.84,0,0,1-2.65,7A9.08,9.08,0,0,1,1155.57,906.72Zm9.4-75,23.53,0a32.19,32.19,0,0,0,14.89-3.34,24.92,24.92,0,0,0,13.74-22.8,29.11,29.11,0,0,0-3.71-14.73,26.17,26.17,0,0,0-10.13-10,30.16,30.16,0,0,0-14.9-3.56l-23.54,0Zm66.9,74.88a9.71,9.71,0,0,1-4.69-1.13,9.33,9.33,0,0,1-3.59-3.58l-33.22-54.73,18.56-5.52,30.26,49.82q3.33,5.48.94,10.3T1231.87,906.56Z" transform="translate(-9 -389.56)"/></svg>