<?xml version="1.0" encoding="utf-8"?>
<!-- Generator: Adobe Illustrator 24.2.0, SVG Export Plug-In . SVG Version: 6.00 Build 0)  -->
<svg version="1.1" id="Layer_1" xmlns="http://www.w3.org/2000/svg" xmlns:xlink="http://www.w3.org/1999/xlink" x="0px" y="0px"
	 viewBox="0 0 668 418.2" style="enable-background:new 0 0 668 418.2;" xml:space="preserve">
<style type="text/css">
	.st0{fill:#E0E0E0;}
	.st1{fill:#EBEBEB;}
	.st2{fill:#F5F5F5;}
	.st3{fill:#007347;}
	.st4{fill:#263238;}
	.st5{fill:#455A64;}
	.st6{fill:#FAFAFA;}
	.st7{fill:#17F5FF;}
	.st8{opacity:0.3;}
	.st9{opacity:0.5;}
	.st10{fill:#FFBE9D;}
	.st11{fill:#177586;}
	.st12{opacity:0.2;}
	.st13{opacity:0.6;}
	.st14{fill:#FFFFFF;}
	.st15{fill:#EB996E;}
</style>
<g id="Background_Complete">
	<path class="st0" d="M250.3,398.6c-5.3-12.1-14.9-21.9-26.8-27.6c-11.9-5.6-38.4-3-38.4-3l-69.6-0.1c1.4,6.1,6,21.8,9.4,27.1
		s8.4,9.7,14.4,11.5c7.4,2.1,15.2-0.1,22.9-0.6c13.5-0.9,26.7,3.5,39.7,7.2s26.8,6.9,39.9,3.8c3.7-0.9,7.6-2.6,9.5-6
		C253.2,407.2,252,402.5,250.3,398.6z"/>
	<path class="st1" d="M36.5,151.8c0,0-7.9-0.6-7.2,17.2s2.5,27.2,2.5,27.2s-0.2,3.9-3.3,3.2s-8.8-4.6-11.6-1.7s-1.9,7.5,2,12.9
		s12,17.4,12.7,18.5s1,3.1-1.2,2.9s-16.8-5.1-18.7,1.9s11.4,20.2,12.8,21.7s1.5,2.4,0.9,3.3s-5.3-1.2-9.5-2.5s-9.3-2-10.1,2.2
		s5.1,16.4,27.1,29.2l10.6,5.3l10-6.4c20.6-15,25.2-27.7,24-31.8s-6.2-2.9-10.3-1.2s-8.6,4.2-9.2,3.4s-0.7-1.8,0.6-3.4
		s13.2-16,10.6-22.9c-2.6-6.9-16.7-0.5-18.8,0s-2-1.6-1.4-2.8s7.5-14,10.8-19.7s3.9-10.4,0.7-13s-8.4,1.8-11.4,2.9s-3.6-2.8-3.6-2.8
		s0.8-9.6-0.2-27.3s-9.1-16.3-9.1-16.3"/>
	<path class="st0" d="M37.2,167.7c0,0,0,0.1,0,0.4s0,0.6,0.1,1.1c0.1,1,0.2,2.4,0.3,4.2c0.2,3.6,0.6,8.9,0.9,15.4
		c0.7,13,1.6,31,2.4,51s1.7,37.9,2.3,51c0.3,6.5,0.6,11.8,0.8,15.4c0.1,1.8,0.2,3.2,0.2,4.2c0,0.5,0,0.8,0,1.1c0,0.1,0,0.3,0,0.4
		c0,0,0-0.1,0-0.4s0-0.6-0.1-1.1c-0.1-1-0.2-2.4-0.3-4.2c-0.2-3.6-0.6-8.9-0.9-15.4c-0.7-13-1.6-31.1-2.4-51s-1.7-37.9-2.3-51
		c-0.3-6.5-0.6-11.8-0.8-15.4c-0.1-1.8-0.2-3.2-0.2-4.2c0-0.5,0-0.8,0-1.1C37.2,167.9,37.2,167.8,37.2,167.7z"/>
	<path class="st0" d="M24.8,203.3c0.2,0.2,0.5,0.3,0.7,0.5c0.4,0.4,1,0.9,1.7,1.6c1.4,1.4,3.3,3.3,5.3,5.6l5.2,5.7l1.6,1.7
		c0.2,0.2,0.4,0.4,0.6,0.6c-0.2-0.2-0.5-0.3-0.7-0.5c-0.4-0.4-1-0.9-1.7-1.6c-1.4-1.4-3.2-3.4-5.3-5.6l-5.2-5.6
		c-0.6-0.7-1.2-1.2-1.6-1.7C25.2,203.8,25,203.6,24.8,203.3z"/>
	<path class="st0" d="M40.8,218.7c-0.1-0.1,3.8-4.1,8.6-9s8.8-8.8,8.9-8.8s-3.8,4.1-8.6,9S40.9,218.8,40.8,218.7z"/>
	<path class="st0" d="M40.7,249.3c0.2-0.2,0.5-0.3,0.7-0.5l2.1-1.2c1.8-1,4.2-2.3,6.8-3.9s4.9-3.1,6.6-4.2l2-1.3
		c0.2-0.2,0.5-0.3,0.8-0.5c-0.2,0.2-0.4,0.4-0.7,0.6c-0.4,0.3-1.1,0.8-1.9,1.4c-1.6,1.2-3.9,2.7-6.5,4.3s-5,2.9-6.8,3.8
		c-0.9,0.5-1.6,0.8-2.1,1C41.3,249.1,41,249.2,40.7,249.3z"/>
	<path class="st0" d="M23.2,238.6c0.3,0.1,0.5,0.2,0.7,0.3l1.9,1.1c1.6,0.9,3.8,2.2,6.2,3.6s4.6,2.8,6.2,3.8
		c0.8,0.5,1.4,0.9,1.9,1.2c0.2,0.1,0.5,0.3,0.7,0.5c-0.3-0.1-0.5-0.2-0.7-0.3l-1.9-1c-1.6-0.9-3.8-2.2-6.3-3.6s-4.6-2.8-6.2-3.7
		c-0.8-0.5-1.4-0.9-1.8-1.2C23.6,239,23.4,238.8,23.2,238.6z"/>
	<path class="st0" d="M19.8,265.7c0.3,0.1,0.6,0.3,0.9,0.5l2.5,1.4c2.1,1.2,4.9,2.8,8,4.6s6,3.5,8,4.7l2.4,1.5
		c0.3,0.2,0.6,0.4,0.8,0.6c-0.3-0.1-0.6-0.3-0.9-0.5L39,277c-2.1-1.2-4.9-2.8-8-4.6s-6-3.5-8-4.7l-2.4-1.5
		C20.3,266.1,20,265.9,19.8,265.7z"/>
	<path class="st0" d="M42,278.4c0.3-0.2,0.6-0.4,0.9-0.6l2.6-1.6c2.2-1.3,5.2-3.2,8.4-5.3s6.1-4.1,8.2-5.5l2.5-1.7
		c0.3-0.2,0.6-0.4,0.9-0.6c-0.3,0.3-0.5,0.5-0.8,0.7c-0.6,0.4-1.4,1.1-2.4,1.8c-2,1.5-4.9,3.5-8.2,5.7s-6.3,3.9-8.5,5.2
		c-1.1,0.6-2,1.1-2.6,1.5C42.7,278.1,42.3,278.2,42,278.4z"/>
	<polygon class="st0" points="57.8,296.6 28.6,296.6 38.1,368.8 48.3,368.8 	"/>
	<path class="st2" d="M30.1,305.5c0,0,0,0.1,0.2,0.3c0.2,0.2,0.4,0.4,0.7,0.5c1,0.4,2.2,0.2,3.1-0.4c1.2-0.6,2.2-1.9,3.8-2.5
		c1.8-0.6,3.6-0.5,5.4,0.1c1.8,0.6,3.4,1.4,5,2.4c1.3,0.8,2.7,1.5,4.1,2.2c1,0.4,2,0.7,3,0.9c0.3,0,0.6,0.1,0.8,0.1
		c0.2,0,0.3,0,0.3,0c-1.4-0.2-2.7-0.6-4-1.2c-1.4-0.7-2.7-1.4-4-2.3c-1.6-1-3.3-1.9-5.1-2.5c-1.8-0.7-3.8-0.7-5.7-0.1
		c-0.8,0.3-1.5,0.8-2.1,1.3c-0.5,0.5-1.1,0.9-1.7,1.3c-0.8,0.6-1.9,0.8-2.8,0.5C30.7,305.9,30.4,305.7,30.1,305.5z"/>
	<path class="st2" d="M31.2,318.8c0,0,0.2-0.3,0.7-0.8c0.7-0.7,1.5-1.2,2.3-1.5c1.3-0.5,2.7-0.7,4.1-0.6c1.7,0.1,3.4,0.4,5.1,0.7
		c1.7,0.3,3.5,0.4,5.2,0.2c1.4-0.2,2.8-0.6,4.1-1.2c0.9-0.4,1.7-0.9,2.5-1.5c0.3-0.2,0.6-0.4,0.8-0.7c-1.1,0.7-2.2,1.3-3.4,1.9
		c-1.3,0.5-2.6,0.8-4,1c-1.7,0.2-3.4,0.1-5.1-0.3c-1.7-0.3-3.4-0.6-5.2-0.7c-1.4-0.1-2.9,0.2-4.2,0.7c-0.9,0.4-1.7,0.9-2.3,1.7
		c-0.2,0.2-0.3,0.4-0.4,0.6C31.2,318.7,31.2,318.8,31.2,318.8z"/>
	<path class="st2" d="M54.5,325.9c-0.2-0.2-0.5-0.3-0.8-0.4c-0.8-0.3-1.6-0.5-2.4-0.5c-1.2-0.1-2.5,0-3.7,0.2
		c-1.4,0.2-2.8,0.6-4.4,0.9c-1.4,0.3-2.9,0.5-4.4,0.5c-1.2,0-2.4-0.3-3.4-0.7c-1-0.5-1.9-1.2-2.6-2c0.1,0.3,0.3,0.6,0.5,0.8
		c0.6,0.6,1.2,1.1,2,1.5c1.1,0.5,2.3,0.8,3.6,0.9c1.5,0,3-0.1,4.5-0.5c1.6-0.3,3-0.7,4.3-1c1.2-0.2,2.4-0.3,3.6-0.3
		C52.4,325.3,53.5,325.5,54.5,325.9z"/>
	<path class="st2" d="M33.8,335.9c0.9-0.4,1.9-0.5,2.8-0.3c1,0.3,2,0.6,3,1.1c1.2,0.6,2.5,0.9,3.8,1.1c2.4,0.2,4.9-0.3,7-1.6
		c0.6-0.4,1.2-0.8,1.7-1.3c0.4-0.4,0.5-0.6,0.5-0.6c-0.8,0.6-1.6,1.2-2.4,1.7c-2.1,1.1-4.4,1.6-6.8,1.4c-2.8-0.2-4.9-1.8-6.8-2
		c-0.7-0.1-1.5-0.1-2.2,0.2C34,335.7,33.7,335.9,33.8,335.9z"/>
	<path class="st2" d="M35.4,349.8c0.8,0,1.7-0.1,2.4-0.5c1.5-0.5,3.3-1.6,5.4-2.5c1-0.4,2-0.6,3.1-0.6c0.9,0,1.7,0.2,2.5,0.6
		c0.7,0.4,1.3,0.9,1.8,1.5c0-0.2-0.1-0.4-0.3-0.6c-0.4-0.5-0.8-0.9-1.4-1.2c-0.8-0.4-1.7-0.7-2.7-0.7c-1.1,0-2.2,0.2-3.3,0.6
		c-2.2,0.9-4,2-5.4,2.6S35.4,349.7,35.4,349.8z"/>
	<path class="st2" d="M36.8,356.2c0.6,0.3,1.2,0.5,1.8,0.6c1.5,0.4,3.1,0.6,4.6,0.8c1.6,0.2,3.1,0.2,4.7,0.1c0.7,0,1.3-0.1,1.9-0.2
		c0-0.1-3,0-6.6-0.4S36.9,356.1,36.8,356.2z"/>
	
		<rect x="498.5" y="183.9" transform="matrix(0.9749 -0.2227 0.2227 0.9749 -34.141 126.5904)" class="st2" width="91.2" height="61.5"/>
	<path class="st0" d="M582.2,175.2c-0.2,0.4-0.4,0.7-0.7,1l-2,2.7l-7.4,10c-6.4,8.4-15.1,20-24.8,32.8l-0.2,0.3l-0.3-0.1l-0.7-0.4
		l-37.5-18.2l-11.3-5.6l-3-1.6c-0.4-0.2-0.7-0.4-1-0.6c0.4,0.1,0.8,0.3,1.1,0.4l3.1,1.4l11.4,5.3l37.6,18l0.7,0.4l-0.5,0.1
		c9.7-12.7,18.5-24.3,25-32.6c3.2-4.1,5.8-7.4,7.6-9.8l2.1-2.6C581.7,175.7,581.9,175.4,582.2,175.2z"/>
	<path class="st0" d="M507,255.4c-0.2-0.1,4.6-9.9,10.7-21.8c6.1-11.9,11.3-21.5,11.5-21.4s-4.6,9.9-10.7,21.8
		S507.2,255.5,507,255.4z"/>
	<path class="st0" d="M558.6,204.8c0.1-0.2,8.6,6.5,18.9,14.8s18.5,15.3,18.4,15.5s-8.6-6.5-18.9-14.9S558.4,204.9,558.6,204.8z"/>
	
		<rect x="189.6" y="8.4" transform="matrix(0.225 -0.9744 0.9744 0.225 126.6713 229.7539)" class="st2" width="36.2" height="53.8"/>
	<path class="st0" d="M238.1,24.1c-0.2,0.1-0.4,0.3-0.6,0.4l-1.8,0.9l-6.5,3.4l-21.6,11l-0.2,0.1l-0.1-0.2l-0.3-0.4l-15.2-19.3
		l-4.6-5.9l-1.2-1.6c-0.2-0.2-0.3-0.4-0.4-0.6c0.2,0.2,0.3,0.3,0.5,0.5l1.3,1.6l4.7,5.8l15.3,19.2l0.3,0.4l-0.3-0.1l21.6-10.9
		l6.6-3.3l1.8-0.9C237.7,24.3,237.9,24.2,238.1,24.1z"/>
	<path class="st0" d="M177.6,47.4c-0.1-0.1,5-4,11.3-8.8s11.5-8.5,11.6-8.4s-5,4-11.3,8.8S177.6,47.5,177.6,47.4z"/>
	<path class="st0" d="M218,33.8c0.1-0.1,2.9,5.7,6.2,12.7s5.9,12.9,5.8,13s-2.9-5.7-6.2-12.7S217.8,33.8,218,33.8z"/>
	
		<rect x="483.4" y="27.5" transform="matrix(0.9188 -0.3947 0.3947 0.9188 24.5451 202.4089)" class="st2" width="41.7" height="28.1"/>
	<path class="st0" d="M518.1,20.7c-0.1,0.2-0.1,0.3-0.2,0.5l-0.7,1.4c-0.6,1.2-1.5,3-2.5,5.1l-8.4,16.8l-0.1,0.1H506l-0.4-0.1
		l-18.3-5.1l-5.5-1.7l-1.5-0.4l-0.5-0.2c0.2,0,0.4,0.1,0.5,0.1l1.5,0.4l5.6,1.5l18.4,5l0.4,0.1l-0.2,0.1c3.3-6.5,6.3-12.4,8.5-16.7
		c1.1-2.1,2-3.8,2.6-5l0.7-1.4C517.9,21,518,20.8,518.1,20.7z"/>
	<path class="st0" d="M490.9,62.9c-0.1,0,1.3-4.8,3-10.7s3.3-10.5,3.4-10.5s-1.3,4.8-3,10.7S491,62.9,490.9,62.9z"/>
	<path class="st0" d="M509.9,35.9c0-0.1,4.4,2.2,9.7,5.1s9.6,5.3,9.5,5.4s-4.4-2.2-9.7-5.1S509.8,36,509.9,35.9z"/>
</g>
<g id="Plant">
	<path class="st3" d="M568.5,281.5c-4.1-2.6-8.7-4.2-13.5-4.7c-2.2-0.2-4.6-0.2-6.4,1.2c-0.4,0.2-0.7,0.7-0.7,1.2
		c0.1,0.3,0.3,0.6,0.6,0.8C554.4,284.1,562.1,284.7,568.5,281.5"/>
	<path class="st3" d="M568.1,281.1c-3.1-2.3-6.1-4.9-8.8-7.7c-2.7-2.8-4.6-6.3-5.5-10.1c-0.4-1.1-0.2-2.4,0.4-3.4
		C561.3,265.3,566.8,272.3,568.1,281.1"/>
	<path class="st3" d="M568.4,281.4c-0.7-3.8-0.6-7.7,0.2-11.5c0.8-3.8,3-7.2,6.1-9.5c1.2,2.8,0.7,6.1-0.2,9
		c-1.3,4.6-3.4,8.9-6.1,12.8"/>
	<path class="st3" d="M575.3,293.7c-4.2,0.5-7.8,2.7-10.9,5.5c-3.1,2.8-5.3,6.6-6.2,10.7c4.1-0.3,7.5-3.1,10-6.3
		S572.4,296.8,575.3,293.7"/>
	<path class="st3" d="M576.8,295.6c-3.3-8.4-2.2-18,3.1-25.3C582.2,278.7,581.3,288.2,576.8,295.6"/>
	<path class="st3" d="M585.8,306.4c-7.8-0.5-15,3.7-18.5,10.7c-0.3,0.4-0.4,1-0.1,1.5c0.3,0.3,0.8,0.4,1.2,0.4
		c3.7-0.2,6.9-2.4,9.6-4.9S582.9,308.5,585.8,306.4"/>
	<path class="st3" d="M585.5,305.8c-1.9-6.3-2.1-13-0.3-19.3c0.7-2.5,1.8-5.1,4.1-6.3c0.2-0.1,0.4-0.2,0.6-0.1
		c0.2,0.1,0.3,0.3,0.4,0.5c0.8,1.7,1.1,3.6,1,5.5c-0.1,1.9-0.4,3.8-0.9,5.6c-0.7,3.4-1.1,7.1-3,10c-0.4,0.7-0.8,1.4-1.2,2.2
		c-0.4,0.8-0.4,1-0.7,1.6"/>
	<path class="st3" d="M609.4,309.3c-1.8-6.7,0.1-14.9,4.4-20.4c0.3-0.4,0.7-0.8,1.2-0.8c0.8,0.1,1,1.1,1,1.9
		C615.7,296.9,613.4,303.6,609.4,309.3"/>
	<path class="st3" d="M611.6,310.8c8.5,2,17.4,0.2,24.4-5c-4.1-2-8.8-2.6-13.2-1.6C618.3,305.2,614.3,307.2,611.6,310.8"/>
	<path class="st3" d="M613.4,306.3c4.6-7.5,13.4-12.4,22.1-12.8c-1,3.6-3.9,6.3-7.2,8c-3.4,1.5-7,2.6-10.6,3.2
		C616.2,305,614.3,305.3,613.4,306.3"/>
	<path class="st3" d="M609.9,284.5c1.4-4.2,2.3-8.6,2.8-13c0.5-4.4-0.4-8.9-2.6-12.8c-4.3,8.3-4.7,18-0.4,26.2"/>
	<path class="st3" d="M624.3,277.3c5-9.1,15.2-16.4,25.6-17.4C645.9,269.8,635,277.5,624.3,277.3"/>
	<path class="st3" d="M621.1,279c7.5,1.1,13.8,5.9,20.8,8.8c1.5,0.7,3.1,1,4.7,0.9c2,0,3.7-1.7,3.6-3.7c0-1.1-0.5-2.1-1.3-2.8
		c-1-0.9-2.1-1.6-3.4-2.1c-7.6-3.2-15.8-3.3-23.8-1.3"/>
	<path class="st3" d="M616.8,284.3c1.7,0.5,2.3,1.4,3.6,2.5c4.6,3.9,10,6.7,15.8,8.1c0.6,0.1,1.4,0.2,1.7-0.3s-0.1-1-0.4-1.5
		c-2.5-3-5.8-5.2-9.5-6.5c-3.6-1.4-6.8-3-11.2-2.6"/>
	<path class="st3" d="M612,252.7c6.2,5.7,14.5,8.5,22.9,7.8c0.4,0,0.7-0.1,1-0.4c0.6-0.6-0.1-1.6-0.8-2.1
		C628.4,252.7,620.2,250.6,612,252.7"/>
	<path class="st3" d="M617.7,250.5c8.2-6,18.8-7.8,28.6-4.7c-3.7,3.5-8.5,5.6-13.6,6C627.6,252.3,622.6,251.8,617.7,250.5"/>
	<path class="st3" d="M615.4,236c-0.7-6.7-0.2-12-0.7-18.8c0-0.5-0.2-1.2-0.7-1.4c-0.7-0.3-1.3,0.6-1.5,1.3
		c-2,6.3-0.9,13.2,2.9,18.7"/>
	<path class="st3" d="M615,236.7c4.4-2.8,8.2-6.5,11.1-10.8c2.2-3,4-6.6,3.5-10.3c-3.1,0.1-6,1.6-8,4c-1.9,2.4-3.3,5.2-4.1,8.2
		C616.7,230.8,616,233.8,615,236.7"/>
	<path class="st3" d="M625.9,233.7c10-3.7,19.3-9.2,27.4-16.2c-3.3-1.3-7-0.5-10.3,0.8c-7.4,2.8-13.6,8.3-17.3,15.3"/>
	<path class="st3" d="M618,240.4c5,0.7,10.2,0.7,15.2,0.1c4.9-0.8,9.6-2.8,14.2-4.7c0.4-0.1,0.8-0.4,1-0.7c0.1-0.4,0-0.9-0.3-1.2
		c-0.4-0.3-0.8-0.5-1.2-0.6c-5-1.4-10.4-0.7-15.3,0.9C626.8,235.8,622.3,237.9,618,240.4"/>
	<path class="st3" d="M589.1,252.9c-3.5-7-3.2-15.1-0.3-22.3c2.1,3.2,2.4,7.3,2,11.1s-1.5,7.7-1.6,11.5"/>
	<path class="st3" d="M575.3,245.9c-8.7-0.1-17.1,3.4-23.1,9.8c4.4,0.5,8.8-0.3,12.6-2.3c3.8-2,7.5-4.5,10.8-7.3"/>
	<path class="st3" d="M566.1,242.8c-4.2-0.3-8.3-0.9-12.3,0.4c-4.1,1.2-7.6,4.1-9.4,8c4,0.3,8-0.4,11.5-2.2
		C559.5,247.3,562.9,245.2,566.1,242.8"/>
	<path class="st3" d="M579.8,243c-3.8-2.5-7.7-5-12.1-6s-9.5-0.3-12.6,3c3.6,2.1,7.9,2.4,12,2.4s9.2,0,13.1,1.3"/>
	<path class="st3" d="M579.8,243.2c-6.5-6.4-8.9-17.8-6.3-26.5C578.6,224.5,580.8,233.9,579.8,243.2"/>
	<path class="st3" d="M597.6,225.1c1.2-2.8,2.1-5.8,3.2-8.7c1-2.9,2.5-5.6,4.5-8c2-2.4,4.9-3.9,8-4.2c-2,8.9-7.7,16.5-15.6,21"/>
	<path class="st3" d="M594.4,228.9c-2-2.8-4.4-6.6-7.1-8.6s-6.3-3.3-9.7-2.5C581.2,223.9,587.4,228,594.4,228.9"/>
	<path class="st3" d="M595.1,225.4c-1.5-3.3-2.5-6.8-3.2-10.4c-0.7-3.6-0.1-7.3,1.6-10.5c3.6,6.7,4.7,14,1.8,21"/>
	<path class="st3" d="M597.7,204.5c2-6.7,8.1-11.6,14.7-13.8c0.8-0.3,1.7-0.5,2.6-0.4c0.9,0.1,1.6,0.7,1.9,1.6
		c0.2,1.1-0.7,2.1-1.6,2.9C610.1,199.1,604.1,202.5,597.7,204.5"/>
	<path class="st3" d="M597.8,199c0.3-4.3,0.5-8.7,1.9-12.7s4.1-7.9,8-9.7c0.7,4.3-1.3,8.7-3.6,12.4s-5.1,7.3-6.5,11.4"/>
	<path class="st3" d="M597.6,202c-1.7-4.9-1.8-11-4.8-15.3c-2-3-5.3-5-7-8.1c-1.1,3-0.9,6.3,0.4,9.2c1.3,2.9,3.2,5.5,5.4,7.7
		C593.8,197.8,595.7,199.5,597.6,202"/>
	<path class="st4" d="M597.7,345.1c-0.1,0-0.2-32.4-0.3-72.4s0.1-72.4,0.2-72.4s0.2,32.4,0.3,72.4S597.8,345.1,597.7,345.1z"/>
	<path class="st4" d="M626,248c-0.4,0.2-0.8,0.3-1.2,0.5l-3.4,1.1c-2.8,1-6.7,2.4-10.9,4.1s-8.1,3.3-10.3,5.2
		c-0.9,0.7-1.6,1.7-2.1,2.8c-0.3,0.8-0.4,1.2-0.4,1.2s0-0.1,0-0.3c0.1-0.3,0.1-0.6,0.2-0.9c0.4-1.1,1.1-2.1,2-2.9
		c1.4-1.1,2.9-2.1,4.5-2.8c1.8-0.8,3.8-1.7,5.9-2.6c4.2-1.7,8.1-3.1,11-4c1.4-0.4,2.6-0.8,3.4-1C625.1,248.1,625.5,248,626,248z"/>
	<path class="st4" d="M635.3,225.2c-0.1,0.1-0.2,0.3-0.3,0.4l-1,1l-3.9,3.5l-12.9,11.5c-5,4.5-9.4,8.8-12.4,12
		c-1.5,1.6-2.7,3-3.5,3.9l-0.9,1.1c-0.1,0.1-0.2,0.2-0.3,0.4c0,0,0.1-0.1,0.3-0.4s0.5-0.6,0.9-1.1c0.8-1,1.9-2.4,3.4-4
		c3.9-4.3,8-8.3,12.4-12.1c5.1-4.5,9.7-8.5,13-11.4l4-3.4c0.4-0.4,0.8-0.7,1.1-0.9C635,225.4,635.2,225.3,635.3,225.2z"/>
	<path class="st4" d="M611.7,246.1c-0.1,0,0.9-2.5,2-5.6s1.6-5.7,1.7-5.6c-0.1,2-0.5,3.9-1.3,5.8c-0.5,1.3-1,2.6-1.6,3.9
		C612.3,245.1,612,245.6,611.7,246.1z"/>
	<path class="st4" d="M597.7,265.7c-0.3-0.3-0.6-0.6-0.8-0.9l-2-2.5c-1.7-2.2-4-5.1-6.6-8.4s-5-6.2-6.7-8.3l-2-2.5
		c-0.3-0.3-0.5-0.6-0.7-1c0.3,0.2,0.6,0.5,0.8,0.8c0.5,0.6,1.3,1.4,2.2,2.4c1.8,2.1,4.2,5,6.8,8.2s4.9,6.3,6.5,8.5
		c0.8,1.1,1.5,2,1.9,2.6C597.3,265,597.5,265.4,597.7,265.7z"/>
	<path class="st4" d="M591.5,257.8c-1.3-1.4-2.2-3.1-2.6-4.9c-0.5-1.6-0.7-3.3-0.6-4.9h0.2c-0.1,0.4-0.2,0.6-0.2,0.6s0-0.2,0-0.6
		h0.2c0.1,1.6,0.4,3.2,0.8,4.8C589.9,254.5,590.7,256.1,591.5,257.8z"/>
	<path class="st4" d="M583.5,247.7c-0.6-0.4-1.2-0.8-1.8-1c-1.6-0.5-3.3-0.6-5-0.4c-1.7,0.1-3.4,0.4-5.1,0.8
		c-0.7,0.2-1.4,0.4-2.1,0.5c0.6-0.4,1.3-0.7,2-0.8c1.7-0.5,3.4-0.9,5.1-1c1.8-0.2,3.5,0,5.2,0.6C582.5,246.6,583.1,247,583.5,247.7z
		"/>
	<path class="st4" d="M581.6,245.2c0,0.1-1.1-0.4-2.8-1c-4.5-1.5-9.3-1.9-14-1.1c-1.8,0.3-2.9,0.6-2.9,0.6c0.2-0.1,0.5-0.3,0.7-0.3
		c0.7-0.2,1.4-0.4,2.1-0.6c4.7-1,9.7-0.7,14.2,1.1c0.7,0.3,1.4,0.6,2,0.9C581.2,244.9,581.4,245.1,581.6,245.2z"/>
	<path class="st4" d="M597.6,234.9c-0.8-2.3-1.5-4.7-2-7c-0.7-2.4-1.2-4.7-1.6-7.2c0.8,2.3,1.5,4.7,2,7.1
		C596.7,230.1,597.3,232.5,597.6,234.9z"/>
	<path class="st4" d="M597.8,234.9c-0.7-1.5-1.4-2.9-2.3-4.2c-1-1.3-2.1-2.4-3.3-3.4c0.5,0.1,0.9,0.3,1.3,0.7
		c0.9,0.7,1.8,1.5,2.4,2.5C596.9,231.7,597.6,233.3,597.8,234.9z"/>
	<path class="st4" d="M597.7,327.8c0,0-0.2-0.8-0.5-2.1c-0.5-1.9-1.3-3.8-2.2-5.6c-3.1-5.9-7-11.3-11.5-16.2
		c-2.6-2.9-5.1-5.7-7.2-8.3c-1.9-2.3-3.6-4.8-5.1-7.4c-1-1.8-1.9-3.6-2.6-5.5c-0.2-0.7-0.4-1.2-0.5-1.6c-0.1-0.2-0.1-0.4-0.1-0.6
		c0,0,0.3,0.7,0.8,2.1c0.8,1.9,1.7,3.7,2.7,5.4c1.5,2.5,3.3,5,5.2,7.3c2.1,2.6,4.6,5.4,7.2,8.3c5.2,5.8,9.3,11.7,11.4,16.4
		c0.9,1.8,1.5,3.7,2,5.7c0.1,0.5,0.2,1.1,0.3,1.6C597.6,327.4,597.7,327.6,597.7,327.8z"/>
	<path class="st4" d="M623.3,298.9c-0.4,0.3-0.9,0.6-1.3,0.8c-1.2,0.7-2.4,1.5-3.5,2.3c-1.6,1.3-3.2,2.7-4.6,4.2
		c-1.6,1.7-3.3,3.7-5,5.8c-3.4,4.2-6.5,8-8.4,11c-1,1.5-1.7,2.7-2.1,3.6c-0.2,0.5-0.5,0.9-0.7,1.4c0,0,0-0.1,0.1-0.4s0.2-0.6,0.5-1
		c0.6-1.3,1.3-2.5,2-3.7c2.6-3.9,5.3-7.6,8.3-11.1c1.7-2.1,3.4-4.1,5-5.8c1.4-1.5,3-2.9,4.7-4.1c1.1-0.8,2.3-1.6,3.6-2.2
		c0.5-0.2,0.8-0.4,1-0.5S623.3,298.9,623.3,298.9z"/>
	<path class="st4" d="M623.8,308.3c-0.9,0.2-1.9,0.3-2.8,0.4c-2.3,0.2-4.5,0.7-6.7,1.3c-2.2,0.7-4.2,1.8-6,3.2c-1.4,1.1-2,2-2.1,1.9
		c0.1-0.2,0.2-0.5,0.4-0.6c0.4-0.6,0.9-1.1,1.5-1.5c1.8-1.5,3.9-2.6,6.1-3.4c2.2-0.7,4.5-1.1,6.8-1.2
		C621.9,308.2,622.8,308.2,623.8,308.3z"/>
	<path class="st4" d="M606.9,314c-0.2-0.1,1.1-2,2.1-4.7s1.2-5,1.3-4.9c0.1,0.5,0.1,1,0,1.5c-0.1,1.2-0.4,2.4-0.8,3.6
		c-0.4,1.2-1,2.3-1.7,3.3C607.3,313.6,607,314.1,606.9,314z"/>
	<path class="st4" d="M631.6,273.7c-0.1,0.1-0.3,0.2-0.5,0.2l-1.3,0.6c-0.6,0.3-1.3,0.6-2.1,1s-1.7,0.8-2.7,1.4l-1.5,0.9
		c-0.5,0.3-1.1,0.7-1.6,1c-1.1,0.7-2.3,1.5-3.5,2.4c-2.6,2-5,4.1-7.3,6.4c-2.2,2.4-4.3,4.9-6.2,7.5c-0.8,1.3-1.6,2.4-2.3,3.6
		c-0.3,0.6-0.7,1.1-1,1.7s-0.6,1.1-0.8,1.6c-0.5,1-0.9,1.9-1.3,2.8s-0.7,1.5-0.9,2.1s-0.4,1-0.6,1.4c-0.1,0.2-0.1,0.3-0.2,0.5
		c0-0.2,0.1-0.3,0.1-0.5c0.1-0.4,0.3-0.8,0.5-1.4s0.5-1.3,0.8-2.2s0.7-1.8,1.3-2.8l0.8-1.6c0.3-0.5,0.6-1.1,1-1.7
		c0.7-1.2,1.5-2.4,2.3-3.6c1.9-2.7,3.9-5.2,6.2-7.6c2.3-2.3,4.8-4.5,7.4-6.5c1.2-0.9,2.4-1.7,3.5-2.4c0.6-0.4,1.1-0.7,1.7-1
		s1.1-0.6,1.6-0.9c1-0.6,1.9-1,2.8-1.4c0.7-0.3,1.4-0.7,2.1-0.9l1.4-0.5C631.2,273.8,631.4,273.7,631.6,273.7z"/>
	<path class="st4" d="M611.3,287.3c0.2-0.7,0.6-1.2,1.1-1.7c1.2-1.1,2.8-1.7,4.5-1.7c1.6,0,3.2,0.3,4.7,0.9c0.6,0.2,1.2,0.5,1.8,0.9
		c-0.6-0.1-1.3-0.3-1.9-0.5c-1.5-0.5-3-0.8-4.6-0.8c-1.6,0-3.1,0.6-4.3,1.5C612.2,286.3,611.7,286.8,611.3,287.3z"/>
	<path class="st4" d="M608.3,290.4c1.4-2.6,1.7-5.6,1-8.5c0.3,0.4,0.5,0.8,0.5,1.2c0.3,1,0.3,2.1,0.2,3.2c-0.1,1.1-0.4,2.1-1,3
		C608.7,290.1,608.3,290.4,608.3,290.4z"/>
	<path class="st5" d="M575.3,332.5c0.7,12.4,4.4,25,10.2,37.7h25c5.5-12.6,9-25.2,9.6-37.7H575.3z"/>
	<path class="st6" d="M616,352.5c0,0.1-8.2,0.2-18.4,0.2s-18.4-0.1-18.4-0.2s8.2-0.2,18.4-0.2S616,352.4,616,352.5z"/>
	<path class="st6" d="M615.4,357c0,0.1-7.7,0.2-17.2,0.2S581,357.1,581,357s7.7-0.2,17.2-0.2S615.4,356.9,615.4,357z"/>
</g>
<g id="Device">
	<path class="st5" d="M149.4,110h355.4c8,0,14.6,6.5,14.6,14.6v225.1c0,8-6.5,14.6-14.6,14.6H149.4c-8,0-14.6-6.5-14.6-14.6V124.6
		C134.9,116.5,141.4,110,149.4,110z"/>
	<path class="st5" d="M119.8,347.8h416.6l0,0v4.5c0,9.8-8,17.8-17.8,17.8h-381c-9.8,0-17.8-8-17.8-17.8L119.8,347.8L119.8,347.8
		L119.8,347.8z"/>
	<rect x="145.2" y="120.1" class="st4" width="362.8" height="214.7"/>
	<polygon class="st4" points="289.2,345.5 294.4,353.7 367.1,353.7 371.9,345.5 	"/>
	<path class="st1" d="M155.9,127.4H498c1.8,0,3.3,1.5,3.3,3.3v200.2c0,1.8-1.5,3.3-3.3,3.3H155.9c-1.8,0-3.3-1.5-3.3-3.3V130.6
		C152.7,128.8,154.1,127.4,155.9,127.4z"/>
	<polygon class="st6" points="500.9,334.4 152.3,334.4 152.7,142.8 500.9,142.8 	"/>
	<path class="st4" d="M181.3,135.4c0,1.5-1.2,2.8-2.8,2.8s-2.8-1.2-2.8-2.8s1.2-2.8,2.8-2.8c0,0,0,0,0,0
		C180,132.6,181.3,133.8,181.3,135.4C181.3,135.3,181.3,135.3,181.3,135.4z"/>
	<path class="st4" d="M164.4,135.4c0,1.5-1.2,2.8-2.8,2.8c-1.5,0-2.8-1.2-2.8-2.8c0-1.5,1.2-2.8,2.8-2.8c0,0,0,0,0,0
		C163.1,132.6,164.4,133.8,164.4,135.4C164.4,135.3,164.4,135.3,164.4,135.4z"/>
	<path class="st4" d="M172.5,135.4c0,1.5-1.2,2.8-2.8,2.8c-1.5,0-2.8-1.2-2.8-2.8c0-1.5,1.2-2.8,2.8-2.8c0,0,0,0,0,0
		C171.2,132.6,172.5,133.8,172.5,135.4C172.5,135.3,172.5,135.3,172.5,135.4z"/>
	<path class="st4" d="M516.1,345.5c0,0.1-85.3,0.3-190.6,0.3s-190.6-0.1-190.6-0.3s85.3-0.3,190.6-0.3S516.1,345.3,516.1,345.5z"/>
	<polygon class="st7" points="264.3,217.7 406.1,216.4 410.3,312.8 263.4,311.7 	"/>
	<path class="st7" d="M264.3,217.7l67-54.4c2.8-2.3,6.9-2.3,9.7,0l65.1,53.1"/>
	<g class="st8">
		<path d="M264.3,217.7l67-54.4c2.8-2.3,6.9-2.3,9.7,0l65.1,53.1"/>
	</g>
	<path class="st4" d="M263.4,311.7c-0.2-0.2,11.1-12.6,25.3-27.7s25.8-27.3,26-27.1s-11.1,12.6-25.3,27.7S263.6,311.9,263.4,311.7z"
		/>
	<path class="st4" d="M410.3,312.8c-0.2,0.2-11.3-12-24.8-27.1s-24.3-27.5-24.1-27.7s11.3,12,24.8,27.1S410.5,312.6,410.3,312.8z"/>
	<g class="st9">
		<polyline points="406.1,216.4 335,273.4 264.3,217.7 		"/>
	</g>
	<polygon class="st6" points="271.5,222.9 271.1,178.6 395.3,176.9 396.8,223.5 335,272.6 	"/>
	<path class="st4" d="M271.5,222.9c0,0,0.4,0.3,1.2,0.9l3.4,2.6l12.9,10c11.1,8.6,27,21,46.3,36.1h-0.3l61.8-49.2l-0.1,0.2
		c-0.3-8.9-0.6-18.2-0.9-27.7c-0.2-6.4-0.4-12.7-0.6-18.9l0.3,0.3l-124.2,1.6l0.2-0.2c0.1,13.9,0.1,25,0.1,32.6c0,3.8,0,6.7,0,8.7
		c0,1,0,1.7,0,2.3S271.4,223,271.5,222.9c0,0,0-0.2,0-0.7s0-1.3,0-2.2c0-2-0.1-4.9-0.1-8.7c-0.1-7.6-0.2-18.7-0.3-32.6v-0.2h0.2
		l124.1-1.8h0.3v0.3c0.2,6.2,0.4,12.5,0.6,18.9c0.3,9.5,0.6,18.8,0.9,27.7v0.1l-0.1,0.1l-61.8,49.1L335,273l-0.1-0.1l-46.2-36.3
		l-12.8-10.1l-3.3-2.6L271.5,222.9z"/>
	<path class="st4" d="M375.7,199.3c0,0.1-19,0.4-42.4,0.6s-42.4,0.2-42.4,0.1s19-0.4,42.4-0.6S375.7,199.1,375.7,199.3z"/>
	<path class="st4" d="M375.8,211.8c0,0.1-19,0.4-42.4,0.6s-42.4,0.2-42.4,0.1s19-0.4,42.4-0.6S375.8,211.6,375.8,211.8z"/>
	<path class="st4" d="M375.8,226.2c0,0.1-19,0.4-42.4,0.6S291,227,291,226.9s19-0.4,42.4-0.6S375.8,226,375.8,226.2z"/>
	<path class="st4" d="M375.8,240.6c0,0.1-18.1,0.4-40.5,0.6s-40.5,0.2-40.5,0.1s18.1-0.4,40.5-0.6S375.8,240.5,375.8,240.6z"/>
	<path class="st4" d="M360,253.3c-0.2,0-0.3,0.1-0.5,0.1l-1.4,0.1l-5.2,0.1l-17.3,0.3c-6.8,0.1-12.9,0.2-17.3,0.2h-5.2h-1.4
		c-0.2,0-0.3,0-0.5,0c0.2,0,0.3-0.1,0.5-0.1l1.4-0.1l5.3-0.1l17.3-0.3c6.8-0.1,12.9-0.2,17.3-0.2h5.3h1.4
		C359.6,253.2,359.8,253.3,360,253.3z"/>
	<path class="st4" d="M344,265.5c-3,0.3-6,0.4-9,0.3c-3,0.1-6,0-9-0.2c3-0.3,6-0.4,9-0.3C338,265.2,341,265.2,344,265.5z"/>
</g>
<g id="Floor">
	<path class="st4" d="M668,369.2c0,0.1-149.5,0.3-334,0.3S0,369.4,0,369.2s149.5-0.3,334-0.3S668,369.1,668,369.2z"/>
</g>
<g id="Envelope_3">
	<path class="st4" d="M360.7,176.5c0.1,0,0.2,0.6,0.1,1.3s-0.2,1.2-0.4,1.2s-0.2-0.6-0.1-1.3S360.6,176.5,360.7,176.5z"/>
	<path class="st4" d="M362.1,166.8c0.1,0.8,0.1,1.7-0.1,2.5c0,0.8-0.3,1.6-0.6,2.4C361.2,170,361.5,168.3,362.1,166.8z"/>
	<path class="st4" d="M364,157.1c0.1,0.8,0,1.7-0.3,2.5c-0.1,0.8-0.4,1.6-0.8,2.3c-0.1-0.8,0-1.7,0.3-2.4
		C363.3,158.7,363.6,157.9,364,157.1z"/>
	<path class="st4" d="M366.7,147.7c-0.1,1.7-0.6,3.3-1.4,4.7c0-0.8,0.2-1.7,0.5-2.4C365.9,149.2,366.2,148.4,366.7,147.7z"/>
	<path class="st4" d="M370.1,138.5c-0.1,0.8-0.3,1.6-0.7,2.4c-0.2,0.8-0.6,1.5-1.1,2.2c0.1-0.8,0.3-1.6,0.7-2.4
		C369.2,139.9,369.6,139.1,370.1,138.5z"/>
	<path class="st4" d="M374.4,129.6c-0.4,1.6-1.2,3.1-2.2,4.4c0.1-0.8,0.4-1.6,0.9-2.3C373.7,130.5,374.3,129.6,374.4,129.6z"/>
	<path class="st4" d="M379.5,121.2c-0.2,0.8-0.6,1.5-1.1,2.2c-0.7,1.1-1.4,2-1.5,1.9c0.2-0.8,0.6-1.6,1.1-2.2
		C378.7,122,379.4,121.2,379.5,121.2z"/>
	<path class="st4" d="M385.6,113.5c-0.3,0.8-0.8,1.5-1.4,2.1c-0.9,1-1.7,1.8-1.8,1.7s0.5-1,1.4-2.1S385.5,113.4,385.6,113.5z"/>
	<path class="st4" d="M392.5,106.5c0.1,0.1-0.6,0.9-1.6,1.9s-1.9,1.6-2,1.5s0.6-0.9,1.6-1.9S392.4,106.4,392.5,106.5z"/>
	<path class="st4" d="M400.3,100.5c0.1,0.1-0.7,0.9-1.8,1.7c-0.6,0.6-1.3,1-2.1,1.2c-0.1-0.1,0.7-0.9,1.8-1.7
		C398.7,101.2,399.5,100.7,400.3,100.5z"/>
	<path class="st4" d="M408.7,95.5c-1.3,1.1-2.7,1.9-4.3,2.3c-0.1-0.1,0.8-0.8,2-1.4C407.1,96,407.9,95.6,408.7,95.5z"/>
	<path class="st4" d="M417.8,91.8c-0.7,0.5-1.4,0.9-2.2,1.1c-0.7,0.4-1.6,0.6-2.4,0.6c0.7-0.5,1.4-0.9,2.2-1.1
		C416.2,92,417,91.8,417.8,91.8z"/>
	<path class="st4" d="M427.4,89.6c-0.7,0.4-1.5,0.6-2.4,0.7c-0.8,0.3-1.6,0.3-2.5,0.3C424.1,89.8,425.7,89.5,427.4,89.6z"/>
	<path class="st4" d="M437.2,89c-0.8,0.3-1.6,0.4-2.5,0.3c-0.8,0.1-1.7,0-2.5-0.2c0.8-0.3,1.6-0.4,2.5-0.3
		C435.6,88.7,436.4,88.8,437.2,89z"/>
	<path class="st4" d="M447,90.2c-0.8,0.1-1.7,0.1-2.5-0.1c-0.8,0-1.6-0.3-2.4-0.6C443.8,89.3,445.4,89.6,447,90.2L447,90.2z"/>
	<path class="st4" d="M456.4,93c-1.6-0.2-3.2-0.8-4.6-1.6c0.8,0,1.7,0.2,2.4,0.6C454.9,92.1,455.7,92.5,456.4,93z"/>
	<path class="st4" d="M465.1,97.4c-0.8-0.2-1.6-0.5-2.3-1c-0.8-0.3-1.4-0.8-2-1.4c0.8,0.2,1.6,0.5,2.3,1
		C464.3,96.7,465.2,97.3,465.1,97.4z"/>
	<path class="st4" d="M472.8,103.5c-0.8-0.3-1.4-0.8-2-1.4c-1-0.9-1.8-1.7-1.7-1.8s1,0.5,2,1.4C472.2,102.6,472.9,103.4,472.8,103.5
		z"/>
	<path class="st4" d="M477.7,109.1c-0.1,0.1-0.5-0.3-1-0.8s-0.7-1.1-0.6-1.1s0.5,0.3,1,0.8S477.8,109,477.7,109.1z"/>
	<path class="st4" d="M523.9,169.4c-0.8-0.1-1.6-0.4-2.4-0.8c-1.3-0.6-2.2-1.2-2.2-1.3c0.8,0.1,1.6,0.4,2.4,0.8
		C522.6,168.4,523.3,168.8,523.9,169.4z"/>
	<path class="st4" d="M533.4,172.7c-1.7-0.2-3.3-0.6-4.8-1.5C530.3,171.4,531.9,171.9,533.4,172.7z"/>
	<path class="st4" d="M543.2,174.2c-0.8,0.2-1.7,0.2-2.5,0c-0.8,0-1.7-0.2-2.5-0.5c0.8-0.2,1.7-0.2,2.5,0
		C541.6,173.7,542.5,173.9,543.2,174.2z"/>
	<path class="st4" d="M553.2,173.9c-0.8,0.3-1.6,0.5-2.5,0.4c-0.8,0.2-1.7,0.1-2.5-0.1c0.8-0.3,1.6-0.5,2.5-0.4
		C551.5,173.7,552.4,173.7,553.2,173.9z"/>
	<path class="st4" d="M563,172.1c-0.7,0.4-1.5,0.7-2.4,0.8c-0.8,0.3-1.7,0.3-2.5,0.3c0.7-0.4,1.6-0.7,2.4-0.8
		C561.3,172.1,562.2,172,563,172.1z"/>
	<path class="st4" d="M572.3,168.4c0.1,0.1-0.9,0.7-2.2,1.3c-0.7,0.4-1.5,0.7-2.4,0.8C569.1,169.5,570.7,168.8,572.3,168.4z"/>
	<path class="st4" d="M580.6,162.8c0.1,0.1-0.7,0.9-1.8,1.8c-0.6,0.6-1.4,1-2.2,1.2c-0.1-0.1,0.8-0.8,1.9-1.6
		C579.1,163.6,579.8,163.2,580.6,162.8z"/>
	<path class="st4" d="M587.4,155.5c-0.3,0.8-0.7,1.5-1.3,2.1c-0.9,1.1-1.8,1.8-1.8,1.7s0.6-1,1.5-2S587.3,155.4,587.4,155.5z"/>
	<path class="st4" d="M592.1,146.7c0,0.9-0.3,1.7-0.7,2.4c-0.3,0.8-0.7,1.5-1.3,2.1c0.1-0.8,0.4-1.6,0.9-2.4
		C591.2,148.1,591.6,147.4,592.1,146.7z"/>
	<path class="st4" d="M594,136.9c0.2,0.8,0.3,1.7,0.1,2.5c0,0.9-0.2,1.7-0.6,2.4c-0.1-0.8-0.1-1.7,0.1-2.5
		C593.6,138.6,593.7,137.7,594,136.9z"/>
	<path class="st4" d="M592.5,127.1c0.5,0.7,0.8,1.5,0.9,2.4c0.3,0.8,0.3,1.7,0.2,2.5c-0.4-0.8-0.6-1.6-0.7-2.4
		C592.6,128.8,592.5,127.9,592.5,127.1z"/>
	<path class="st4" d="M588.1,118.1c0.1-0.1,0.9,0.8,1.6,2c0.5,0.7,0.8,1.5,0.9,2.3c-0.1,0.1-0.7-0.9-1.4-2.1
		C588.8,119.7,588.4,118.9,588.1,118.1z"/>
	<path class="st4" d="M581.2,111c0.8,0.3,1.5,0.7,2.1,1.4c1.1,0.9,1.8,1.8,1.7,1.9s-1-0.6-2-1.5S581.1,111.1,581.2,111z"/>
	<path class="st4" d="M572.1,106.9c0.9-0.1,1.7,0.1,2.5,0.4c0.8,0.2,1.6,0.6,2.3,1.1c-0.8-0.1-1.6-0.3-2.4-0.7
		C573.6,107.7,572.9,107.3,572.1,106.9z"/>
	<path class="st4" d="M562.2,107.1c0.7-0.5,1.6-0.7,2.4-0.7c0.8-0.2,1.7-0.2,2.5,0.1C565.5,106.8,563.9,107,562.2,107.1L562.2,107.1
		z"/>
	<path class="st4" d="M553.6,111.9c-0.1-0.1,0.6-1,1.7-1.9c0.6-0.6,1.4-1,2.3-1.1c0.1,0.1-0.9,0.8-2,1.6S553.7,112,553.6,111.9z"/>
	<path class="st4" d="M549.6,120.9c-0.2-0.8-0.1-1.7,0.2-2.5c0.1-0.9,0.5-1.7,1-2.3c-0.1,0.8-0.3,1.6-0.5,2.4
		C550.2,119.3,550,120.1,549.6,120.9z"/>
	<path class="st4" d="M551.6,130.6c-0.6-0.6-1-1.4-1.2-2.2c-0.4-0.8-0.5-1.6-0.4-2.5c0.4,0.7,0.7,1.5,0.9,2.3
		C551.2,129,551.5,129.8,551.6,130.6z"/>
	<path class="st4" d="M558.1,138c-0.8-0.3-1.6-0.7-2.2-1.3c-1.1-0.9-1.7-1.9-1.6-1.9s0.9,0.7,1.9,1.6S558.2,137.9,558.1,138z"/>
	<path class="st4" d="M567.2,142.1c-0.9,0-1.7-0.1-2.5-0.5c-0.8-0.2-1.6-0.6-2.3-1.1c0.8,0.1,1.6,0.3,2.4,0.7
		C565.7,141.3,566.5,141.7,567.2,142.1z"/>
	<path class="st4" d="M577.1,143c-1.6,0.4-3.4,0.4-5-0.1c0.8-0.2,1.7-0.2,2.5-0.1C575.5,142.7,576.3,142.8,577.1,143z"/>
	<path class="st4" d="M587,141.2c-1.5,0.8-3.1,1.3-4.8,1.2c0.7-0.4,1.5-0.7,2.4-0.8C585.3,141.4,586.1,141.2,587,141.2z"/>
	<path class="st4" d="M596,137.1c-0.6,0.6-1.3,1.1-2.1,1.4c-0.7,0.5-1.5,0.8-2.3,0.9C592.9,138.3,594.4,137.5,596,137.1L596,137.1z"
		/>
	<path class="st4" d="M604,131.1c0.1,0.1-0.7,0.9-1.8,1.8c-0.6,0.6-1.3,1.1-2.1,1.4c-0.1-0.1,0.7-0.9,1.8-1.8
		C602.5,131.9,603.2,131.4,604,131.1z"/>
	<path class="st4" d="M610.8,123.8c0.1,0.1-0.5,1-1.4,2.1s-1.7,1.8-1.8,1.7s0.5-1,1.4-2.1S610.7,123.7,610.8,123.8z"/>
	<path class="st4" d="M616.3,115.5c-0.2,0.8-0.6,1.6-1.1,2.3c-0.7,1.2-1.4,2.1-1.5,2c0.2-0.8,0.6-1.6,1.1-2.3
		C615.5,116.3,616.2,115.4,616.3,115.5z"/>
	<path class="st4" d="M620.4,106.3c-0.1,0.8-0.3,1.7-0.7,2.4c-0.2,0.8-0.6,1.6-1.2,2.2c0.1-0.8,0.3-1.7,0.7-2.4
		C619.5,107.7,619.8,107,620.4,106.3z"/>
	<path class="st4" d="M623.2,96.7c0.1,0.8-0.1,1.7-0.4,2.5c-0.1,0.8-0.4,1.6-0.9,2.4C622,99.8,622.4,98.2,623.2,96.7z"/>
	<path class="st4" d="M624.9,86.9c0.1,0.8,0.1,1.7-0.1,2.5c0,0.8-0.3,1.7-0.6,2.4c-0.1-0.8-0.1-1.7,0.1-2.5
		C624.3,88.5,624.6,87.7,624.9,86.9z"/>
	<path class="st4" d="M625.8,76.9c0.2,1.7,0.1,3.4-0.4,5c-0.2-0.8-0.2-1.7-0.1-2.5C625.4,78.6,625.5,77.7,625.8,76.9z"/>
	<path class="st4" d="M626.2,66.9c0.2,0.8,0.3,1.7,0.2,2.5c0.1,0.8,0,1.7-0.3,2.5c-0.2-0.8-0.3-1.7-0.2-2.5
		C625.8,68.6,625.9,67.7,626.2,66.9z"/>
	<path class="st4" d="M626.1,56.9c0.3,0.8,0.4,1.7,0.3,2.5c0.1,0.8,0,1.7-0.2,2.5c-0.3-0.8-0.4-1.7-0.3-2.5
		C625.8,58.6,625.8,57.8,626.1,56.9z"/>
	<path class="st4" d="M626,50.8c0.1,0,0.3,0.3,0.3,0.6s-0.1,0.6-0.3,0.6s-0.3-0.3-0.3-0.6S625.8,50.8,626,50.8z"/>
	<rect x="582.2" y="24.7" transform="matrix(0.9942 -0.108 0.108 0.9942 -1.5464 66.845)" class="st7" width="68.4" height="46.1"/>
	<path class="st4" d="M584.8,74.4L584.8,74.4l-5-45.8l0,0l68-7.4l0,0l5,45.9l0,0L584.8,74.4z M579.9,28.5l5,45.8l67.9-7.4l-5-45.8
		L579.9,28.5z"/>
	<path class="st4" d="M648.1,21.7c-0.2,0.2-0.4,0.5-0.6,0.7l-1.7,1.9l-6.4,6.8l-21.3,22.2l-0.2,0.2l-0.2-0.1l-0.5-0.3L591,36.1
		l-8-5.2l-2.1-1.4c-0.3-0.2-0.5-0.3-0.7-0.5c0.3,0.1,0.5,0.3,0.8,0.4l2.2,1.3l8,5l26.4,16.7l0.5,0.3h-0.4l21.5-22.1l6.5-6.6l1.8-1.8
		C647.7,22.1,647.9,21.9,648.1,21.7z"/>
	<path class="st4" d="M585.1,74.9c-0.1-0.1,4.3-6.9,9.9-15.3s10.3-15,10.4-14.9s-4.3,6.9-9.9,15.3S585.3,74.9,585.1,74.9z"/>
	<path class="st4" d="M628,41.7c0.1-0.1,5.9,5.6,12.8,12.7s12.5,13,12.3,13.1c-0.1,0.1-5.8-5.6-12.8-12.7S627.8,41.8,628,41.7z"/>
</g>
<g id="Envelope_2">
	<path class="st4" d="M337.5,160c0.1,0,0.4,0.5,0.5,1.2s0.1,1.3,0,1.3s-0.4-0.5-0.5-1.2S337.3,160.1,337.5,160z"/>
	<path class="st4" d="M335.9,150.3c0.4,0.7,0.6,1.6,0.6,2.4c0.2,0.8,0.3,1.7,0.1,2.5c-0.4-0.7-0.6-1.6-0.6-2.4
		C335.8,152,335.7,151.1,335.9,150.3z"/>
	<path class="st4" d="M334.4,140.5c0.4,0.8,0.6,1.6,0.6,2.4c0.2,0.8,0.2,1.7,0.1,2.5c-0.4-0.8-0.6-1.6-0.6-2.4
		C334.3,142.2,334.3,141.3,334.4,140.5z"/>
	<path class="st4" d="M333.3,130.7c0.3,0.8,0.5,1.6,0.5,2.4c0.2,0.8,0.2,1.7,0,2.5c-0.3-0.8-0.5-1.6-0.5-2.4
		C333.1,132.4,333.1,131.5,333.3,130.7z"/>
	<path class="st4" d="M332.6,120.8c0.4,1.6,0.5,3.3,0.3,4.9C332.5,124.1,332.4,122.5,332.6,120.8z"/>
	<path class="st4" d="M332.5,110.9c0.3,1.6,0.3,3.4,0,5c-0.3-0.8-0.3-1.6-0.3-2.5C332.2,112.6,332.2,111.7,332.5,110.9z"/>
	<path class="st4" d="M333.1,101.1c0.2,0.8,0.2,1.7,0,2.5c0,0.8-0.1,1.7-0.5,2.4c-0.2-0.8-0.2-1.7-0.1-2.5
		C332.6,102.7,332.8,101.8,333.1,101.1z"/>
	<path class="st4" d="M334.6,91.3c0.1,0.8,0.1,1.7-0.2,2.5c-0.1,0.8-0.3,1.7-0.7,2.4C333.7,94.5,334,92.8,334.6,91.3L334.6,91.3z"/>
	<path class="st4" d="M337.1,81.7c0,0.8-0.1,1.7-0.5,2.4c-0.2,0.8-0.5,1.6-1,2.3c0-0.8,0.1-1.7,0.5-2.4
		C336.3,83.2,336.7,82.4,337.1,81.7z"/>
	<path class="st4" d="M340.8,72.6c-0.1,0.8-0.3,1.6-0.8,2.4c-0.3,0.8-0.7,1.5-1.2,2.2C339.2,75.5,339.9,73.9,340.8,72.6L340.8,72.6z
		"/>
	<path class="st4" d="M345.7,64c-0.2,0.8-0.6,1.6-1,2.2c-0.7,1.2-1.4,2-1.5,2c0.2-0.8,0.6-1.6,1.1-2.3
		C344.9,64.8,345.5,63.9,345.7,64z"/>
	<path class="st4" d="M351.6,56c0.1,0.1-0.5,1-1.3,2.1s-1.6,1.8-1.8,1.8c0.3-0.8,0.8-1.5,1.4-2.1C350.7,56.7,351.5,56,351.6,56z"/>
	<path class="st4" d="M358.6,49.1c0.1,0.1-0.6,0.9-1.6,1.9s-1.9,1.6-2,1.5s0.6-0.9,1.6-1.9S358.5,49,358.6,49.1z"/>
	<path class="st4" d="M366.7,43.4c0.1,0.1-0.8,0.8-2,1.6c-0.7,0.5-1.4,0.9-2.2,1.1c-0.1-0.1,0.8-0.8,1.9-1.6
		C365.1,44,365.9,43.6,366.7,43.4z"/>
	<path class="st4" d="M375.7,39.4c-0.6,0.5-1.4,0.9-2.2,1.1c-0.7,0.4-1.6,0.6-2.4,0.7c0.7-0.5,1.4-0.9,2.2-1.1
		C374,39.6,374.9,39.4,375.7,39.4z"/>
	<path class="st4" d="M382.9,37.6c0,0.1-0.5,0.4-1.2,0.5s-1.3,0.1-1.3,0s0.5-0.4,1.2-0.5S382.9,37.4,382.9,37.6z"/>
	
		<rect x="330.3" y="-0.4" transform="matrix(0.3606 -0.9327 0.9327 0.3606 192.8622 354.9666)" class="st7" width="50.1" height="74.3"/>
	<path class="st4" d="M381,73.6L381,73.6l-69.4-26.8l0,0L329.7,0l0,0l69.4,26.8l0,0L381,73.6z M311.7,46.8L381,73.6L399,26.9
		L329.7,0.1L311.7,46.8z"/>
	<path class="st4" d="M399.1,27.5c-0.3,0.2-0.6,0.3-0.9,0.4l-2.6,0.9l-9.5,3.4L354.4,43l-0.3,0.1l-0.1-0.2l-0.3-0.6l-17-29.4
		L331.5,4l-1.4-2.5c-0.2-0.3-0.3-0.6-0.4-0.9c0.2,0.3,0.4,0.5,0.5,0.8l1.5,2.4l5.2,8.8c4.4,7.5,10.5,17.9,17.2,29.3l0.3,0.6
		l-0.4-0.2l31.8-10.7l9.6-3.2l2.6-0.8C398.4,27.6,398.7,27.5,399.1,27.5z"/>
	<path class="st4" d="M311.7,47.4c-0.1-0.2,7.6-4.6,17.2-9.8s17.4-9.4,17.5-9.2s-7.6,4.6-17.2,9.8S311.7,47.6,311.7,47.4z"/>
	<path class="st4" d="M369.6,36.7c0.2-0.1,2.9,8.3,6,18.7s5.5,18.8,5.4,18.9s-2.9-8.3-6-18.7S369.4,36.8,369.6,36.7z"/>
</g>
<g id="Envelope_1">
	<path class="st4" d="M308.3,171c0.1,0,0.2,0.6,0.2,1.3s-0.2,1.2-0.4,1.2s-0.2-0.6-0.2-1.3S308.2,171,308.3,171z"/>
	<path class="st4" d="M308.6,160.8c0.3,0.8,0.3,1.7,0.3,2.6c0.1,0.9,0,1.7-0.3,2.5c-0.3-0.8-0.3-1.7-0.3-2.5
		C308.2,162.5,308.3,161.6,308.6,160.8z"/>
	<path class="st4" d="M307.9,150.7c0.5,1.6,0.7,3.4,0.5,5.1c-0.3-0.8-0.5-1.6-0.5-2.5C307.7,152.4,307.7,151.5,307.9,150.7z"/>
	<path class="st4" d="M306.2,140.6c0.4,0.8,0.7,1.6,0.7,2.4c0.2,0.8,0.3,1.7,0.2,2.6c-0.4-0.8-0.7-1.6-0.7-2.4
		C306.2,142.4,306.1,141.5,306.2,140.6z"/>
	<path class="st4" d="M303.4,130.8c0.8,1.5,1.4,3.1,1.5,4.9c-0.5-0.7-0.8-1.5-1-2.4C303.6,132.6,303.4,131.7,303.4,130.8z"/>
	<path class="st4" d="M299.5,121.4c0.6,0.6,1,1.4,1.3,2.2c0.4,0.7,0.7,1.6,0.8,2.4c-0.6-0.6-1-1.4-1.3-2.2
		C299.9,123.1,299.6,122.3,299.5,121.4z"/>
	<path class="st4" d="M294.5,112.6c0.1-0.1,0.8,0.8,1.6,2c0.5,0.7,0.9,1.5,1.1,2.3c-0.1,0.1-0.8-0.9-1.5-2.1
		C295.1,114.2,294.7,113.4,294.5,112.6z"/>
	<path class="st4" d="M288.3,104.6c0.1-0.1,0.9,0.7,1.8,1.8c0.6,0.6,1.1,1.3,1.4,2.1c-0.1,0.1-0.9-0.7-1.8-1.8
		C289.1,106.1,288.6,105.4,288.3,104.6z"/>
	<path class="st4" d="M281,97.5c0.1-0.1,1,0.6,2.1,1.5s1.8,1.8,1.7,1.9c-0.8-0.4-1.5-0.9-2.1-1.5C281.6,98.5,280.9,97.6,281,97.5z"
		/>
	<path class="st4" d="M272.7,91.6c0.8,0.2,1.6,0.6,2.3,1.2c1.2,0.8,2.1,1.5,2,1.6c-0.8-0.2-1.6-0.7-2.3-1.2
		C273.5,92.4,272.6,91.7,272.7,91.6z"/>
	<path class="st4" d="M263.7,86.9c0.9,0.1,1.7,0.4,2.4,0.8c0.8,0.3,1.6,0.7,2.2,1.3c-0.9-0.1-1.7-0.4-2.4-0.8
		C265,88,264.3,87.5,263.7,86.9z"/>
	<path class="st4" d="M254,83.9c0.9,0,1.7,0.1,2.5,0.4c0.9,0.1,1.7,0.5,2.4,0.9c-0.9,0-1.7-0.1-2.5-0.4
		C255.5,84.7,254.7,84.3,254,83.9z"/>
	<path class="st4" d="M243.9,82.6c1.7-0.3,3.4-0.1,5.1,0.4C247.2,83.1,245.5,83,243.9,82.6z"/>
	<path class="st4" d="M233.7,83.3c1.6-0.5,3.4-0.7,5.1-0.6c-0.8,0.4-1.6,0.5-2.5,0.6C235.4,83.4,234.6,83.4,233.7,83.3z"/>
	<path class="st4" d="M223.9,85.9c0.7-0.5,1.5-0.8,2.4-1c0.8-0.3,1.6-0.5,2.5-0.5c-0.7,0.5-1.5,0.8-2.4,1
		C225.6,85.7,224.8,85.9,223.9,85.9z"/>
	<path class="st4" d="M214.8,90.3c-0.1-0.1,0.9-0.8,2.1-1.4c0.7-0.5,1.5-0.8,2.4-1C217.9,89,216.4,89.8,214.8,90.3L214.8,90.3z"/>
	<path class="st4" d="M206.6,96.4c-0.1-0.1,0.7-0.9,1.8-1.8c0.6-0.6,1.3-1.1,2.1-1.4c0.1,0.1-0.7,0.9-1.8,1.8
		C208.1,95.6,207.4,96.1,206.6,96.4z"/>
	<path class="st4" d="M200,104.1c0.3-0.8,0.7-1.6,1.3-2.2c0.9-1.1,1.7-1.9,1.8-1.8s-0.6,1-1.4,2.1S200.1,104.2,200,104.1z"/>
	<path class="st4" d="M196.3,110.7c-0.1-0.1,0-0.6,0.3-1.2s0.6-1.1,0.8-1s0,0.6-0.3,1.2S196.4,110.8,196.3,110.7z"/>
	<path class="st4" d="M132.7,169.7c0-0.1,0.5-0.3,1.2-0.4s1.3,0,1.3,0.1s-0.5,0.3-1.2,0.4S132.7,169.9,132.7,169.7z"/>
	<path class="st4" d="M122.8,168.6c0.8,0,1.7,0.1,2.5,0.4c0.8,0.1,1.7,0.3,2.4,0.7C126,169.8,124.3,169.4,122.8,168.6L122.8,168.6z"
		/>
	<path class="st4" d="M113.9,164.2c0.8,0.3,1.6,0.6,2.2,1.1c1.2,0.7,2.1,1.3,2.1,1.4c-0.8-0.2-1.6-0.5-2.3-1
		C114.6,165,113.8,164.3,113.9,164.2z"/>
	<path class="st4" d="M106.4,157.5c0.1-0.1,0.9,0.7,1.9,1.6s1.7,1.8,1.6,1.9s-1-0.6-2-1.6S106.3,157.6,106.4,157.5z"/>
	<path class="st4" d="M100.6,149.4c0.1-0.1,0.8,0.8,1.6,2c0.5,0.7,0.9,1.4,1.2,2.2c-0.1,0.1-0.8-0.8-1.6-1.9
		C101.2,151,100.8,150.2,100.6,149.4z"/>
	<path class="st4" d="M96.2,140.4c0.6,0.6,1,1.4,1.2,2.2c0.4,0.7,0.7,1.6,0.8,2.4c-0.6-0.6-1-1.4-1.2-2.2
		C96.6,142,96.3,141.2,96.2,140.4z"/>
	<path class="st4" d="M93.4,130.8c0.5,0.7,0.8,1.5,0.9,2.4c0.3,0.8,0.4,1.6,0.4,2.5c-0.5-0.7-0.8-1.5-0.9-2.4
		C93.4,132.4,93.3,131.6,93.4,130.8z"/>
	<path class="st4" d="M91.6,120.9c0.4,0.8,0.6,1.6,0.6,2.4c0.2,0.8,0.3,1.7,0.1,2.5c-0.4-0.8-0.6-1.6-0.6-2.4
		C91.5,122.6,91.5,121.7,91.6,120.9z"/>
	<path class="st4" d="M90.7,110.9c0.5,1.6,0.6,3.3,0.4,5c-0.3-0.8-0.5-1.6-0.5-2.5C90.4,112.6,90.5,111.7,90.7,110.9z"/>
	<path class="st4" d="M90.2,103.4c0.1,0,0.3,0.6,0.3,1.2s-0.1,1.3-0.2,1.3s-0.3-0.6-0.3-1.2S90.1,103.4,90.2,103.4z"/>
	
		<rect x="46" y="44.7" transform="matrix(0.9989 -4.710645e-02 4.710645e-02 0.9989 -3.3298 4.2095)" class="st7" width="83.2" height="56.1"/>
	<path class="st4" d="M47.4,102.8L47.4,102.8l-2.6-56.1l0,0l83.2-3.9l0,0l2.6,56.1l0,0L47.4,102.8z M44.8,46.7l2.6,56l83.1-3.9
		l-2.6-56L44.8,46.7z"/>
	<path class="st4" d="M128.2,43.4c-0.2,0.3-0.5,0.5-0.7,0.8l-2.2,2.1l-8.3,7.8L89.4,79.6l-0.2,0.2L89,79.6l-0.6-0.4L57.6,56.8
		c-3.9-2.9-7-5.2-9.3-6.8L45.9,48c-0.3-0.2-0.6-0.4-0.8-0.7c0.3,0.2,0.6,0.4,0.9,0.6l2.6,1.8l9.4,6.7l30.9,22.2l0.6,0.4h-0.5
		l27.7-25.3l8.4-7.6l2.3-2C127.6,43.8,127.9,43.6,128.2,43.4z"/>
	<path class="st4" d="M47.7,103.4c-0.2-0.1,5.7-8.1,13.2-17.8s13.6-17.5,13.7-17.4S68.9,76.3,61.4,86S47.9,103.5,47.7,103.4z"/>
	<path class="st4" d="M102.2,66.2c0.2-0.1,6.7,7.2,14.6,16.4s14.2,16.7,14,16.9s-6.7-7.2-14.6-16.4S102,66.4,102.2,66.2z"/>
</g>
<g id="Character">
	<path class="st10" d="M193.6,241.9c0.2-1.2-0.6-2.3-1.7-2.5l-2.2,0.1l-8-2.8c-1.3-0.3-2.6,0.4-2.9,1.7c0,0.2-0.1,0.3-0.1,0.5
		c0,2.3-1,8.5-2.8,6.6l-0.1-0.1c-2.6-2.9-5.7-4.4-6.8-4.2c-0.7,0.1-1.2,0.8-1.1,1.6c0.1,0.3,0.2,0.6,0.5,0.8
		c0.1,0.1,0.3,0.3,0.5,0.3c0.1,0,0.2,0.1,0.3,0.1c1.1,0.8,2.1,1.7,3.1,2.7c0.8,0.9,1.5,1.9,2,3c0.5,1.2,0.9,2.3,1.3,3.3l0.1,7.3
		l-3.2,34.3c0,0-21.1-22.2-20.6-22.4l1.2,34.5l12.8,10.6c6.8,5.7,17,4.7,22.6-2.1c2.5-3,3.8-6.7,3.7-10.6l-0.7-44.3l0.5-5.8
		L193.6,241.9z"/>
	<path class="st10" d="M75.1,290.6L52,343.4l-18.2,38.1l-13.6,4.6c0,0-10.7,3.1-10.7,5.3s2.8,1.7,2.8,1.7c0.5,3.3,5.1,1.4,8.3,0
		c3.2-1.4,10.4-1.8,10.4-1.8c-1.3,0.9-1.7,2.7-0.8,4c0.2,0.2,0.3,0.4,0.6,0.6c1.1,0.8,3.1-0.2,4.5-1.6s4.8-2.1,8.7-3.5
		s4.5-6.5,4.5-6.5l46.2-77.9L75.1,290.6z"/>
	<path class="st11" d="M151.7,309.8l5.8,7.7l12.6-27.9c0,0-12.2-14.9-16.7-21.2s-7.8-7.3-7.8-7.3s-8.1-2.4-12.2-2.4l-20.1,1.2
		l-20.4,8.9c-5,2.2-9.3,5.8-12.3,10.3l-19.2,30.8l27.2,11.6l9.1,52.2c1.7,7.8,3.3,15.2,10.5,18.8l50.4-48.4l-5.9-9.3L151.7,309.8z"
		/>
	<path class="st4" d="M103.6,300.2c0.1,0.1-3,4.9-6.9,10.8s-7.3,10.6-7.4,10.5s3-4.9,6.9-10.8S103.4,300.1,103.6,300.2z"/>
	<path class="st4" d="M145.8,349.7c-0.4,0.3-0.9,0.6-1.3,0.8c-0.9,0.5-2.1,1.2-3.7,2c-3.2,1.6-7.6,3.9-12.6,6.2s-9.5,4.3-12.8,5.7
		c-1.6,0.7-3,1.3-3.9,1.6c-0.5,0.2-1,0.4-1.5,0.5c0.4-0.3,0.9-0.5,1.4-0.7l3.9-1.8c3.3-1.5,7.8-3.5,12.7-5.9s9.4-4.5,12.6-6l3.8-1.8
		C144.8,350.1,145.3,349.9,145.8,349.7z"/>
	<path class="st4" d="M102,288.9c-0.6-0.7-1.2-1.4-1.8-2.2c-1.3-1.8-2.8-3.5-4.5-5.1c-1.7-1.5-3.6-2.7-5.8-3.4
		c-1.6-0.5-2.8-0.5-2.8-0.6c0.3-0.1,0.5-0.1,0.8-0.1c0.7,0,1.4,0.1,2.1,0.3c2.2,0.6,4.3,1.8,6,3.4c1.7,1.6,3.2,3.3,4.4,5.3
		C101.1,287.3,101.6,288.1,102,288.9z"/>
	<path class="st4" d="M143.4,314.3c0,0.2,0,0.4,0,0.6c0,0.4,0,0.9,0,1.6c-0.1,1.9-0.4,3.9-0.8,5.8c-2.7,12.8-11.4,23.6-23.3,29
		c-1.8,0.8-3.6,1.5-5.5,2c-0.7,0.2-1.2,0.3-1.5,0.4c-0.2,0.1-0.4,0.1-0.5,0.1c0,0,0.7-0.3,2-0.7c1.8-0.6,3.6-1.3,5.4-2.2
		c11.7-5.6,20.2-16.2,23.1-28.8c0.5-1.9,0.8-3.8,1-5.7C143.3,315.1,143.4,314.3,143.4,314.3z"/>
	<g class="st8">
		<path d="M92.3,341.7c-0.1-0.5,6.5-34.4,6.5-34.4l-9.9,14.8"/>
	</g>
	<path class="st4" d="M150.4,277.3c0,0.2,0.1,0.4,0.1,0.6c0,0.4,0.1,1,0.1,1.7c0.1,1.5,0.2,3.6,0.3,6.1c0.3,5.3,0.6,12.4,1,20.3
		s0.7,15.1,0.8,20.3c0.1,2.6,0.1,4.7,0.1,6.2v1.7c0,0.2,0,0.4,0,0.6c0-0.2-0.1-0.4-0.1-0.6c0-0.4-0.1-1-0.1-1.7
		c-0.1-1.5-0.2-3.6-0.3-6.1c-0.3-5.3-0.6-12.4-1-20.3s-0.7-15.1-0.8-20.3c-0.1-2.6-0.1-4.7-0.1-6.2v-1.7
		C150.4,277.7,150.4,277.5,150.4,277.3z"/>
	<g class="st12">
		<path d="M110.2,366.5c-1.6-1.3-1.3-4.1,0.2-5.6s3.6-2.2,5.6-2.9c9.6-3.1,19.2-7.5,25.5-15.3c0.8-1.1,1.8-2.1,2.8-3
			c1.1-0.9,2.6-1.1,3.9-0.5c1.9,1,2,3.8,1.2,5.8c-1,2.5-2.9,4.5-5.3,5.8"/>
	</g>
	<g class="st12">
		<polygon points="150.6,283.3 156.2,315.7 151.9,310 		"/>
	</g>
	<path class="st11" d="M203.8,368.5l-9.4,32.4l40.3,12c0.9-3.9-17.6-17.8-17.6-17.8l7-20.6L203.8,368.5z"/>
	<g class="st13">
		<path class="st14" d="M205.1,389.6c-0.9,0-1.6,0.7-1.7,1.5c0,0.9,0.6,1.6,1.5,1.7c0.9,0,1.7-0.7,1.8-1.6c-0.1-0.9-0.8-1.6-1.8-1.6
			"/>
	</g>
	<g class="st13">
		<path class="st14" d="M194.4,400.9l1.1-3.2l38.2,12.7c0,0,1.6,1.3,1,2.5L194.4,400.9z"/>
	</g>
	<path class="st4" d="M217.7,395c-0.1,0.2-1.1,0-2.2,0.3s-1.9,1-2.1,0.9s0.5-1.2,1.9-1.6S217.8,394.9,217.7,395z"/>
	<path class="st4" d="M221.4,398c0,0.2-1,0.3-1.9,0.9s-1.4,1.5-1.6,1.4s0-1.2,1.2-2S221.5,397.8,221.4,398z"/>
	<path class="st4" d="M222.3,403.8c-0.2,0-0.2-1.1,0.6-2s1.9-1.1,1.9-0.9s-0.7,0.6-1.4,1.4S222.5,403.8,222.3,403.8z"/>
	<path class="st4" d="M218.8,390.2c-0.1,0.1-1-0.4-2.1-0.6s-2.1-0.2-2.2-0.4s1-0.6,2.3-0.3S219,390,218.8,390.2z"/>
	<path class="st4" d="M219.2,385.1c-0.7,0-1.4-0.2-2-0.6c-0.7-0.3-1.3-0.8-1.9-1.3c-0.4-0.3-0.7-0.6-1-1c-0.2-0.2-0.3-0.4-0.5-0.6
		c-0.2-0.4-0.1-0.8,0.2-1.1c0.3-0.2,0.7-0.3,1-0.2c0.3,0.1,0.5,0.2,0.7,0.3c0.4,0.2,0.8,0.5,1.1,0.8c0.6,0.5,1.1,1.1,1.5,1.8
		c0.4,0.6,0.7,1.3,0.7,2c-0.1,0-0.4-0.7-1.1-1.7c-0.4-0.6-0.9-1.1-1.5-1.5c-0.3-0.3-0.7-0.5-1-0.7c-0.4-0.2-0.8-0.4-0.9-0.2
		s-0.1,0.1,0,0.2c0.1,0.2,0.2,0.3,0.3,0.5c0.3,0.3,0.6,0.6,0.9,0.9c0.5,0.5,1.1,0.9,1.7,1.3C218.5,384.7,219.3,385,219.2,385.1z"/>
	<path class="st4" d="M218.9,385.3c-0.2-0.7-0.2-1.4,0-2.1c0.2-0.8,0.5-1.5,0.9-2.1c0.3-0.4,0.5-0.7,0.9-1.1c0.4-0.5,1-0.7,1.6-0.6
		c0.4,0.1,0.6,0.4,0.7,0.8c0,0.3,0,0.5,0,0.8c-0.1,0.5-0.2,0.9-0.4,1.4c-0.3,0.7-0.8,1.3-1.5,1.8c-1.1,0.8-2,0.8-2,0.7
		s0.8-0.3,1.7-1.1c0.5-0.5,0.9-1.1,1.2-1.7c0.2-0.4,0.3-0.8,0.3-1.2c0.1-0.5,0-0.8-0.2-0.8s-0.6,0.2-0.9,0.5
		c-0.3,0.3-0.6,0.6-0.8,0.9c-0.4,0.6-0.8,1.2-1,1.9C219,384.5,219,385.3,218.9,385.3z"/>
	<path class="st4" d="M245.2,320.2c1,7.5-1.5,15.9-4.3,23l-17.7,41.5l-19.6-3c0,0-4.1,4.5-9.3,6.3c-2.3,0.8-10,2.3-16.3-2.3l0,0
		c0,0-8.9,12.4-23,16.2s-35.3,5.8-45.6-10.6l49-47.2c1,0.2,42.2-27.6,64.5-33.9C223.1,310.2,243.3,306.5,245.2,320.2z"/>
	<path class="st5" d="M202.3,381.5c0,0,0.1-0.1,0.3-0.2l0.8-0.4c0.7-0.4,1.8-0.9,3.1-1.6c1.6-0.9,3.2-1.8,4.7-2.9
		c2-1.4,3.8-3,5.3-4.9c1.8-2.3,3-5,3.4-7.9c0.5-3.3,0.4-6.7-0.4-10c-0.7-3.7-2.6-7-5.4-9.4c-3.2-2.4-7-3.7-11-3.9
		c-2-0.2-4-0.1-6.1,0c-2,0.2-3.9,0.5-5.8,1c-3.6,0.9-7.1,2.2-10.6,3.6c-6.5,2.9-12.2,5.9-17.2,8.1c-3.9,1.8-8,3.1-12.1,4
		c-0.7,0.2-1.4,0.3-2,0.4s-1.1,0.2-1.5,0.2l-0.9,0.1h-0.3l0.3-0.1l0.9-0.1c0.4-0.1,0.9-0.1,1.4-0.3s1.2-0.2,2-0.4
		c4.1-1,8.1-2.4,12-4.2c4.9-2.2,10.6-5.3,17.1-8.2c3.4-1.5,7-2.8,10.6-3.7c1.9-0.5,3.9-0.8,5.9-1c2-0.2,4.1-0.2,6.1,0
		c4.1,0.2,8,1.6,11.3,4c1.5,1.2,2.8,2.7,3.7,4.5c0.9,1.6,1.5,3.4,1.9,5.2c0.8,3.3,0.9,6.8,0.4,10.2c-0.5,3-1.7,5.7-3.6,8.1
		c-1.5,1.9-3.4,3.6-5.4,4.9c-1.5,1-3.1,2-4.7,2.8c-1.3,0.7-2.4,1.2-3.1,1.5l-0.8,0.4C202.5,381.5,202.4,381.5,202.3,381.5z"/>
	<path class="st5" d="M214.5,327c-1.2,2.3-2.6,4.6-4.1,6.7c-1.4,2.2-2.9,4.4-4.5,6.4c1.2-2.3,2.6-4.6,4.1-6.7
		C211.4,331.2,212.9,329.1,214.5,327z"/>
	<path class="st5" d="M200.4,378.2c-1.2,0.4-2.4,0.7-3.6,0.9c-2.2,0.5-5.2,1.4-8.5,2.5s-6.1,2.4-8.2,3.3s-3.3,1.6-3.4,1.5
		c0.2-0.2,0.5-0.4,0.8-0.5c0.6-0.3,1.4-0.8,2.4-1.3c5.3-2.7,10.9-4.6,16.7-5.9c1.1-0.2,2-0.4,2.6-0.5
		C199.8,378.2,200.1,378.2,200.4,378.2z"/>
	<path class="st5" d="M222.9,382c-0.1,0-0.3-0.9-1.1-2.1c-2.2-3.3-6.4-4.7-10.1-3.3c-1.4,0.5-2.1,1.1-2.2,1s0.1-0.2,0.5-0.5
		c0.5-0.4,1-0.7,1.6-0.9c3.9-1.7,8.4-0.2,10.5,3.5c0.3,0.5,0.6,1.1,0.7,1.6C223,381.7,223,382,222.9,382z"/>
	<path class="st5" d="M138.3,366.5c0.1,0.3,0.2,0.6,0.3,0.9c0.1,0.9,0.2,1.7,0.2,2.6c0,2.9-0.8,5.8-2.3,8.4
		c-1.5,2.5-3.9,4.5-6.7,5.4c-0.8,0.3-1.7,0.5-2.6,0.5c-0.3,0.1-0.7,0.1-1,0c1.2-0.2,2.3-0.4,3.4-0.8c2.7-1,4.9-2.9,6.4-5.4
		c1.5-2.5,2.3-5.2,2.4-8.1C138.6,367.8,138.3,366.5,138.3,366.5z"/>
	<path class="st5" d="M116.3,388.9c-0.1,0.1-0.6-0.4-1.1-1s-0.8-1.3-0.6-1.4s0.6,0.4,1.1,1.1S116.4,388.8,116.3,388.9z"/>
	<path class="st5" d="M120.4,393.3c-0.1,0.1-0.6-0.3-1.3-0.9s-1-1.1-0.9-1.2s0.7,0.3,1.3,0.9S120.5,393.1,120.4,393.3z"/>
	<path class="st5" d="M125.3,396.8c-0.1,0.1-0.7-0.1-1.4-0.6s-1.2-0.9-1.1-1s0.7,0.2,1.4,0.6S125.3,396.7,125.3,396.8z"/>
	<path class="st5" d="M130.8,399.1c0,0.1-0.7,0-1.5-0.3s-1.4-0.6-1.3-0.8s0.7,0,1.5,0.3S130.8,399,130.8,399.1z"/>
	<path class="st5" d="M136.7,400.1c0,0.1-0.7,0.2-1.5,0.1s-1.5-0.3-1.5-0.4s0.7-0.2,1.5-0.1S136.7,399.9,136.7,400.1z"/>
	<path class="st5" d="M142.6,399.7c0,0.1-0.6,0.3-1.5,0.4c-0.4,0-0.7,0-1.1,0l0,0c-0.3,0-0.4-0.1-0.4-0.1s0.1-0.1,0.4-0.2l0,0
		c0.4-0.1,0.7-0.1,1.1-0.2C142,399.5,142.6,399.6,142.6,399.7z"/>
	<path class="st5" d="M148.5,398.7c0,0.1-0.6,0.4-1.4,0.6s-1.5,0.2-1.5,0.1s0.6-0.4,1.4-0.6S148.5,398.5,148.5,398.7z"/>
	<path class="st5" d="M154.3,396.9c0,0.1-0.6,0.5-1.3,0.7s-1.5,0.4-1.5,0.2s0.6-0.5,1.3-0.7S154.2,396.8,154.3,396.9z"/>
	<path class="st5" d="M159.8,394.6c0.1,0.1-0.5,0.5-1.3,0.9s-1.4,0.5-1.5,0.4s0.5-0.5,1.3-0.9S159.7,394.5,159.8,394.6z"/>
	<path class="st5" d="M165.1,391.7c0.1,0.1-0.4,0.6-1.2,1s-1.4,0.6-1.4,0.5s0.4-0.6,1.2-1S165,391.6,165.1,391.7z"/>
	<path class="st5" d="M170,388.3c0.1,0.1-0.4,0.6-1.1,1.1s-1.3,0.8-1.4,0.7s0.4-0.6,1.1-1.1S169.9,388.2,170,388.3z"/>
	<path class="st5" d="M174.6,384.5c0.1,0.1-0.3,0.6-1,1.2s-1.2,0.9-1.3,0.8s0.3-0.6,1-1.2S174.5,384.4,174.6,384.5z"/>
	<path class="st5" d="M179,380.4c0.1,0.1-0.3,0.7-0.9,1.2s-1.2,0.9-1.3,0.8s0.3-0.6,0.9-1.2S178.9,380.3,179,380.4z"/>
	<path class="st5" d="M183.7,376.7c0.1,0.1-0.4,0.6-1.1,1.1s-1.3,0.8-1.4,0.7s0.4-0.6,1.1-1.1S183.6,376.6,183.7,376.7z"/>
	<path class="st5" d="M189,373.8c0.1,0.1-0.5,0.5-1.2,0.9s-1.4,0.6-1.5,0.4s0.5-0.5,1.2-0.9S188.9,373.7,189,373.8z"/>
	<path class="st5" d="M194.7,372c0,0.1-0.6,0.4-1.4,0.6s-1.5,0.3-1.5,0.1s0.6-0.4,1.4-0.6S194.7,371.9,194.7,372z"/>
	<path class="st5" d="M200.7,371.7c0,0.1-0.7,0.2-1.5,0.2s-1.5-0.1-1.5-0.2s0.7-0.3,1.5-0.3S200.7,371.6,200.7,371.7z"/>
	<path class="st5" d="M206.5,373.2c-0.1,0.1-0.7-0.1-1.5-0.3s-1.4-0.5-1.4-0.7s0.7-0.1,1.5,0.2S206.5,373.1,206.5,373.2z"/>
	<path class="st5" d="M205.2,377.6c-0.1-0.1,0.4-0.6,0.9-1.2s1-1.1,1.1-1s-0.1,0.7-0.7,1.4S205.3,377.7,205.2,377.6z"/>
	<path class="st5" d="M199.9,380.3c0-0.1,0.5-0.5,1.3-0.8s1.4-0.5,1.5-0.3s-0.5,0.5-1.3,0.8S200,380.5,199.9,380.3z"/>
	<path class="st5" d="M194.2,382.2c0-0.1,0.6-0.5,1.3-0.7s1.5-0.4,1.5-0.2s-0.6,0.5-1.3,0.7S194.2,382.3,194.2,382.2z"/>
	<path class="st5" d="M188.6,384.3c-0.1-0.1,0.5-0.5,1.3-0.8s1.4-0.4,1.5-0.3s-0.5,0.5-1.3,0.8S188.6,384.4,188.6,384.3z"/>
	<path class="st5" d="M183.1,386.7c-0.1-0.1,0.5-0.5,1.3-0.8s1.4-0.5,1.5-0.4s-0.5,0.5-1.3,0.8S183.1,386.8,183.1,386.7z"/>
	<path class="st5" d="M171.9,215.2c0,0,6.5-2,15.2-11.6s12.2-22,13.3-22s6-2.7,17,17.3s7.7,25.1,5.8,25.2s-15-2.5-23-1
		s-18,6.5-18,6.5L171.9,215.2z"/>
	<path class="st4" d="M158.6,227.5l2.6,4.1l1.2,1.9c1.6,2.5,4.9,3.4,7.5,2l13.9-6l-9.7-18.3l-13.7,8.6
		C157.7,221.4,156.9,224.8,158.6,227.5C158.6,227.5,158.6,227.5,158.6,227.5z"/>
	<path class="st4" d="M167.3,233.8l5.2,8.6l2.2-0.8l15.7,11l3.5-8.5c0,0-9-3.1-10.9-6.1s0-3.9,0-3.9l-4.5-4.4L167.3,233.8z"/>
	<path class="st4" d="M216.7,199.2c5.9,10.8,8.7,20.7,6.4,22s-9.1-6.4-15-17.3s-8.7-20.7-6.4-22S210.8,188.4,216.7,199.2z"/>
	<polygon class="st5" points="157.8,233.8 161.6,232.3 158.9,227.9 156.1,230 	"/>
	<polygon class="st5" points="180.1,231.2 170.3,238.6 168.8,236.2 	"/>
	<polygon class="st5" points="158.9,227.9 161.6,232.3 160.8,232.6 158.5,228.2 	"/>
	<path class="st5" d="M161.6,228.8c1.5-0.5,2.9-1.2,4.2-2c1.4-0.7,2.7-1.5,3.9-2.4c-1.5,0.5-2.9,1.2-4.2,2
		C164.2,227,162.8,227.9,161.6,228.8z"/>
	<path class="st5" d="M160.2,226.2c1.3-0.5,2.6-1.1,3.8-1.9c1.3-0.7,2.4-1.4,3.5-2.4C164.9,223,162.5,224.5,160.2,226.2L160.2,226.2
		z"/>
	<path class="st5" d="M163.3,231.5c0.4,0,0.8-0.2,1.2-0.4l1.3-0.5c0.5-0.2,0.9-0.5,1.4-0.8c1.3-0.6,2.5-1.4,3.5-2.3
		c-1.3,0.5-2.6,1.1-3.8,1.9c-0.5,0.3-1,0.6-1.4,0.8s-0.9,0.4-1.2,0.6C163.7,231.2,163.3,231.5,163.3,231.5z"/>
	<path class="st5" d="M206.2,197.5c0,0,5.5-4,9.3,3.6s-2.2,9.3-2.2,9.3C210.3,206.4,207.9,202.1,206.2,197.5z"/>
	<path class="st4" d="M199.4,188.6c0.1,0.5,0.2,1,0.3,1.5c0.3,0.9,0.6,2.3,1.1,4c0.3,0.8,0.6,1.7,1,2.7l0.6,1.5
		c0.1,0.3,0.2,0.5,0.3,0.8s0.2,0.5,0.4,0.8l1.6,3.3c0.1,0.3,0.3,0.6,0.4,0.9s0.3,0.6,0.5,0.8l1,1.7l1,1.7c0.2,0.3,0.3,0.6,0.5,0.8
		s0.4,0.5,0.5,0.8l2.1,3c0.2,0.2,0.3,0.5,0.5,0.7l0.5,0.6l1,1.2l1.8,2.2c1.2,1.3,2.2,2.2,2.9,2.9c0.3,0.4,0.7,0.7,1.1,1
		c-0.3-0.4-0.6-0.8-1-1.1l-2.8-3l-1.7-2.3l-1-1.2l-0.5-0.6c-0.2-0.2-0.3-0.5-0.5-0.7l-2-3l-0.5-0.8c-0.2-0.3-0.3-0.6-0.5-0.8l-1-1.7
		c-0.3-0.6-0.7-1.1-1-1.7c-0.1-0.3-0.3-0.6-0.5-0.8s-0.3-0.6-0.4-0.9l-1.6-3.2c-0.1-0.3-0.3-0.5-0.4-0.8s-0.2-0.5-0.3-0.8
		c-0.2-0.5-0.4-1-0.6-1.5l-1.1-2.6c-0.5-1.6-0.9-3-1.3-3.9C199.8,189.6,199.6,189.1,199.4,188.6z"/>
	<path class="st10" d="M184.5,234.1c0.9,0.3,1.4,1.2,1.2,2c-0.4,1.7-1.1,4.4-1.7,6c-0.2,0.5-0.4,1-0.8,1.5c-0.4,0.6-1.3,0.8-1.9,0.4
		c-0.4-0.2-0.6-0.6-0.6-1.1c-0.1-0.6,0-1.2,0.1-1.7c0.4-1.6,1-4,1.6-5.9C182.7,234.4,183.6,233.9,184.5,234.1
		C184.5,234.1,184.5,234.1,184.5,234.1L184.5,234.1z"/>
	<path class="st10" d="M187.2,236.9c0.9,0.3,1.4,1.2,1.2,2c-0.4,1.7-1.1,4.4-1.7,6c-0.2,0.5-0.4,1-0.8,1.5c-0.4,0.4-0.9,0.7-1.5,0.6
		c-0.6-0.2-1-0.7-1.1-1.3c-0.1-0.6,0-1.2,0.1-1.7c0.4-1.6,1-4,1.6-5.9C185.4,237.1,186.3,236.6,187.2,236.9L187.2,236.9z"/>
	<path class="st10" d="M189.8,238.5c0.8,0.2,1.2,1,1,1.8c-0.4,1.5-1,3.8-1.5,5.2c-0.1,0.5-0.4,0.9-0.6,1.3c-0.4,0.5-1.1,0.7-1.7,0.3
		c-0.3-0.2-0.5-0.6-0.5-0.9c-0.1-0.5,0-1,0.1-1.5c0.3-1.4,0.9-3.4,1.4-5.1C188.2,238.8,189,238.3,189.8,238.5L189.8,238.5z"/>
	<path class="st10" d="M192.8,238.9c0.8,0.2,1.2,1,1,1.8c-0.4,1.5-1,3.8-1.5,5.2c-0.1,0.5-0.4,0.9-0.6,1.3c-0.4,0.6-1.1,0.7-1.7,0.3
		c-0.3-0.2-0.5-0.6-0.5-1c-0.1-0.5,0-1,0.1-1.5c0.3-1.4,0.9-3.5,1.4-5.1C191.2,239.1,192,238.7,192.8,238.9
		C192.8,238.9,192.8,238.9,192.8,238.9L192.8,238.9z"/>
	<path class="st15" d="M183.6,243.7c0.1-1.1,0.3-2.2,0.7-3.2c0.3-1.1,0.7-2.1,1.2-3c-0.1,1.1-0.3,2.2-0.7,3.2
		C184.6,241.7,184.1,242.7,183.6,243.7z"/>
	<path class="st15" d="M189.2,246c0.5-2.1,1.1-4.2,1.9-6.3C191,241.9,190.3,244.1,189.2,246L189.2,246z"/>
	<path class="st15" d="M186.4,245.6c0.5-2.1,1.1-4.2,1.9-6.3C188.2,241.5,187.5,243.7,186.4,245.6z"/>
	<path class="st4" d="M237.2,161c0.1,0.1-4,5.6-9.2,12.4s-9.5,12.2-9.6,12.1s4-5.6,9.1-12.4S237.1,160.9,237.2,161z"/>
	<path class="st4" d="M264.1,176.9c0.1,0.1-8.6,4.3-19.3,9.2s-19.4,8.9-19.5,8.8s8.6-4.3,19.3-9.2S264,176.8,264.1,176.9z"/>
	<path class="st4" d="M260.1,209.9c0,0.1-6.2-0.3-13.7-1.1s-13.7-1.4-13.7-1.6s6.2,0.3,13.7,1.1S260.1,209.8,260.1,209.9z"/>
	<path class="st10" d="M102.4,228.5l6.8,38.6c1.2,6.7,7.5,11.3,14.3,10.3l0,0c6.9-0.9,11.7-7.2,10.9-14.1c0-0.1,0-0.3-0.1-0.4
		l-1.1-6.6c0,0,9.5-2.6,8.5-12.1c-0.5-4.6-2.2-14-3.9-22.5c-2-9.5-11.2-15.8-20.8-14.2l0,0c-9.7,1.6-16.3,10.7-14.7,20.4
		C102.3,228,102.4,228.2,102.4,228.5z"/>
	<path class="st15" d="M133.2,256.3c-4.4,0.6-9-0.2-13-2.1c0,0,3.8,6.5,13.3,4.5L133.2,256.3z"/>
	<path class="st4" d="M135.7,228.1c0.1,0.7-0.4,1.4-1.2,1.5c-0.7,0.1-1.4-0.3-1.6-1c0,0,0,0,0,0c-0.1-0.7,0.4-1.4,1.2-1.5
		C134.8,226.9,135.5,227.4,135.7,228.1C135.7,228.1,135.7,228.1,135.7,228.1z"/>
	<path class="st4" d="M136,225.8c-0.1,0.2-1.3-0.5-2.8-0.3s-2.5,1-2.7,0.9s0-0.4,0.5-0.8c0.6-0.5,1.3-0.8,2.1-0.9
		c0.8-0.1,1.6,0.1,2.2,0.5C135.9,225.4,136.1,225.7,136,225.8z"/>
	<path class="st4" d="M121.7,229.8c0.1,0.7-0.4,1.4-1.2,1.5c-0.7,0.1-1.4-0.3-1.6-1c0,0,0,0,0,0c-0.1-0.7,0.4-1.4,1.2-1.5
		C120.9,228.6,121.6,229.1,121.7,229.8C121.7,229.8,121.7,229.8,121.7,229.8z"/>
	<path class="st4" d="M121.6,227.7c-0.1,0.2-1.3-0.5-2.8-0.3s-2.5,1-2.7,0.9s0.1-0.4,0.5-0.8c0.6-0.5,1.3-0.8,2.1-0.9
		c0.8-0.1,1.6,0.1,2.2,0.4C121.5,227.3,121.7,227.7,121.6,227.7z"/>
	<path class="st4" d="M128.3,238.9c0.8-0.3,1.6-0.6,2.4-0.7c0.4-0.1,0.7-0.2,0.8-0.5c0-0.4-0.2-0.8-0.4-1.1l-1.4-2.7
		c-2-3.9-3.6-7.1-3.4-7.2s1.9,3,4,6.9c0.5,1,1,1.9,1.4,2.7c0.3,0.4,0.4,0.9,0.4,1.4c-0.1,0.3-0.3,0.5-0.6,0.6
		c-0.2,0.1-0.4,0.1-0.6,0.2C130,238.8,129.1,238.9,128.3,238.9z"/>
	<path class="st4" d="M124.1,240.4c0.2,0,0.4,1.5,1.9,2.5s3.2,0.6,3.2,0.8s-0.3,0.4-1.1,0.5c-0.9,0.1-1.9-0.1-2.7-0.6
		c-0.8-0.5-1.3-1.2-1.5-2.1C123.8,240.8,124,240.4,124.1,240.4z"/>
	<path class="st4" d="M121.4,222.8c-0.1,0.4-1.6,0.4-3.3,0.8s-3.1,1-3.3,0.7c-0.1-0.2,0.1-0.6,0.6-1c1.4-1.1,3.3-1.5,5.1-1.1
		C121.1,222.4,121.4,222.6,121.4,222.8z"/>
	<path class="st4" d="M135.2,222.5c-0.2,0.4-1.3,0.1-2.5,0.3s-2.3,0.5-2.5,0.2c-0.1-0.1,0-0.5,0.4-0.9c0.6-0.5,1.3-0.7,2-0.8
		c0.7-0.1,1.5,0.1,2.1,0.4C135.1,222,135.3,222.3,135.2,222.5z"/>
	<path class="st4" d="M137.8,205.4c-1.3-1-3.2-0.9-4.4,0.3c0.8-1.3,0.4-3.1-0.9-4c-1.3-0.9-2.9-1.1-4.4-0.6c-1.5,0.5-2.8,1.1-4.1,2
		c0.1-0.6-0.2-1.2-0.7-1.6c-0.5-0.3-1.1-0.5-1.7-0.5c-2.5-0.2-5,0.4-7.2,1.6c-2.4,1.3-4.6,2.8-6.7,4.5l0,0c-2.3,1.9-4.4,4.1-6.1,6.5
		l-0.1,0.1c-1.4,1.3-2.6,5.1-2.4,6.9c0.8,6.9,3.1,10.8,4.4,17.3c0,0.4,0.2,0.9,0.5,1.2c0.8,0.8,2.2,0.1,3-0.7
		c1.7-2.2,2.6-4.9,2.5-7.7c0.1-2.8-0.3-5.5-0.2-8.3v-0.2c0-0.7,0.1-1.4,0.2-2.1c0.1-0.5,1.3-4.4,5.1-5c4-0.7,11.9,3.2,15.9,2.6
		s4.1-3.4,4.1-3.4l2.3,4.7c0.5-1.9,0.7-3.9,0.4-5.9c1-0.9,1.7-2.1,2-3.4C139.7,208.1,139.1,206.4,137.8,205.4z"/>
	<path class="st10" d="M106.2,232.5c-0.2,0-6.9-1.2-5.9,5.3s7.4,4.2,7.4,4S106.2,232.5,106.2,232.5z"/>
	<path class="st15" d="M105.3,239.7c0,0-0.1,0.1-0.3,0.2c-0.3,0.2-0.6,0.2-0.9,0.1c-0.9-0.4-1.6-1.3-1.7-2.3
		c-0.1-0.6-0.1-1.1,0.1-1.7c0.1-0.4,0.3-0.8,0.7-1c0.3-0.1,0.6,0,0.7,0.2c0.1,0.2,0.1,0.3,0.1,0.3s0.1-0.1,0-0.4
		c-0.1-0.2-0.2-0.3-0.3-0.4c-0.2-0.1-0.4-0.1-0.7-0.1c-0.5,0.2-0.9,0.6-1,1.2c-0.2,0.6-0.2,1.2-0.1,1.9c0.1,1.2,0.9,2.2,2.1,2.6
		c0.4,0,0.7-0.1,1-0.3C105.3,239.9,105.3,239.7,105.3,239.7z"/>
	<path class="st6" d="M91.4,279.5c0.2-0.1,0.4-0.1,0.6-0.1c0.6,0,1.1,0.3,1.5,0.7c0.6,0.7,0.9,1.6,0.9,2.5c-0.1,1.1-0.4,2.3-0.8,3.4
		c-0.5,1.3-0.4,2.7,0.2,3.9c0.7,1.2,2.2,2.2,2.8,3.9c0.6,1.8,0,3.8-1.4,5c-0.8,0.6-1.7,1-2.7,1c-1,0-2-0.2-2.9-0.5
		c-0.9-0.3-1.8-0.4-2.7-0.2c-0.8,0.3-1.5,0.9-2,1.6c-0.5,0.8-1.1,1.5-1.7,2.1c-0.7,0.6-1.6,1-2.5,0.9c-1.7-0.1-3.2-1.1-4-2.6
		c-0.6-1.3-1-2.7-1-4.1c-0.1-1.3,0-2.4,0-3.4c0-0.9-0.1-1.7-0.2-2.5c-0.1-0.7-0.3-1.4-0.6-2.1c0.1,0.2,0.2,0.3,0.3,0.5
		c0.2,0.5,0.4,1,0.5,1.6c0.2,0.8,0.3,1.7,0.3,2.6c0,1,0,2.2,0.1,3.4c0,1.4,0.4,2.7,1,3.9c0.7,1.3,2.1,2.2,3.6,2.4
		c0.8,0,1.6-0.3,2.2-0.8c0.6-0.6,1.2-1.3,1.6-2.1c0.5-0.8,1.3-1.5,2.3-1.8c1-0.2,2-0.2,3,0.2c0.9,0.3,1.8,0.4,2.7,0.5
		c0.9,0,1.7-0.4,2.4-0.9c1.3-1.1,1.8-2.9,1.3-4.5c-0.5-1.5-1.9-2.5-2.7-3.9c-0.4-0.7-0.6-1.4-0.6-2.2c0-0.7,0.2-1.4,0.4-2
		c0.4-1.1,0.7-2.2,0.8-3.3c0.1-0.8-0.2-1.7-0.7-2.3c-0.3-0.4-0.8-0.7-1.3-0.8C91.6,279.5,91.4,279.6,91.4,279.5z"/>
	<path class="st6" d="M94.1,349.5c0,0,0.1,0.2,0.3,0.6c0.4,0.5,0.9,0.9,1.6,1.1c1,0.3,2.1,0.1,2.9-0.6c1-0.9,1.7-2.1,1.9-3.5
		c0.3-1.5,0.3-3.2,0.6-5c0.1-1,0.5-1.9,0.9-2.7c0.5-0.9,1.3-1.7,2.3-2.1c1-0.4,2.1-0.5,3.2-0.3c1.1,0.1,2.2,0.4,3.2,0.5
		c1.1,0.2,2.2,0.1,3.3-0.2c1.1-0.3,2.1-0.9,2.9-1.6c0.8-0.8,1.5-1.7,1.8-2.8c0.3-1,0.3-2.2-0.1-3.2c-0.6-2-2.3-3.5-4.4-3.9
		c-2-0.2-3.8,0.8-5.7,0.8c-0.9,0-1.8-0.2-2.6-0.6c-0.7-0.4-1.4-0.8-2.1-1.3c-1-0.9-2.2-1.6-3.5-2.1c-1-0.4-2.1-0.3-3,0.2
		c-0.6,0.3-1,0.8-1.3,1.4c-0.1,0.2-0.1,0.4-0.2,0.7c0-0.2,0-0.5,0.1-0.7c0.2-0.7,0.7-1.2,1.3-1.5c0.4-0.2,0.9-0.4,1.4-0.5
		c0.6-0.1,1.2,0,1.7,0.2c1.3,0.5,2.6,1.2,3.6,2.1c1.2,1.1,2.8,1.7,4.5,1.8c0.9-0.1,1.8-0.2,2.7-0.5c1-0.3,2-0.4,3-0.3
		c2.3,0.4,4.1,2,4.8,4.2c0.4,1.1,0.4,2.4,0.1,3.5c-0.4,1.2-1,2.2-1.9,3c-0.9,0.8-2,1.4-3.1,1.7c-1.1,0.3-2.3,0.4-3.5,0.2
		c-1.1-0.1-2.2-0.4-3.2-0.5c-1-0.2-2-0.1-3,0.3c-0.9,0.3-1.6,1-2.1,1.8c-0.4,0.8-0.8,1.7-0.9,2.6c-0.3,1.8-0.3,3.5-0.6,5
		c-0.3,1.4-1,2.7-2.1,3.6c-0.9,0.7-2,0.9-3.1,0.6c-0.7-0.2-1.2-0.6-1.6-1.2C94.2,350,94.1,349.7,94.1,349.5z"/>
	<path class="st6" d="M128.1,288.9c0.2-0.3,0.4-0.7,0.7-0.9c0.8-0.8,1.9-1.3,3-1.5c1.8-0.3,3.6,0.5,4.8,1.9c0.7,0.9,1.1,2,1.2,3.1
		c0,1.2,0.3,2.4,0.8,3.5c0.3,0.5,0.9,0.9,1.5,1.1c0.7,0.2,1.3,0.3,2,0.3c0.7,0,1.4,0,2.2,0.1c0.8,0,1.6,0.3,2.2,0.8
		c0.3,0.3,0.6,0.6,0.8,1c0.2,0.4,0.2,0.8,0.2,1.3c-0.1,0.8-0.4,1.6-1,2.3c-0.6,0.7-1.2,1.2-2,1.6c-0.8,0.4-1.5,0.7-2.3,1
		c-0.8,0.3-1.5,0.8-2.1,1.3c-0.6,0.6-1.1,1.3-1.3,2.1c-0.4,1.7,0,3.5-0.1,5.4c-0.1,1-0.3,1.9-0.8,2.8c-0.5,0.9-1.3,1.6-2.4,1.8
		c-1.1,0.1-2.1-0.3-2.9-1c-0.8-0.7-1.4-1.4-1.9-2.3c-0.5-0.8-1-1.7-1.5-2.5c-0.5-0.8-1.3-1.3-2.1-1.7c-0.9-0.3-1.8-0.2-2.6,0.2
		c-0.9,0.4-1.7,0.8-2.4,1.3c-0.8,0.5-1.6,0.9-2.5,1.3c-0.9,0.3-1.8,0.5-2.8,0.5c-1.8,0-3.6-0.7-5-1.8c-1.4-1-2.4-2.5-2.7-4.2
		c-0.4-1.6,0-3.4,1.2-4.6c0.6-0.5,1.3-0.9,2.1-1.1c0.7-0.2,1.4-0.3,2.1-0.4c1.3-0.1,2.6-0.5,3.7-1.3c0.9-0.8,1.6-1.8,2-3
		c0.4-1.1,0.7-2.1,1.1-3.1c0.3-0.9,0.8-1.8,1.4-2.5c0.5-0.6,1.1-1.2,1.7-1.7c0.8-0.7,1.9-1.3,3-1.5c0.4-0.1,0.8,0.1,1.1,0.3
		c-0.3-0.2-0.7-0.3-1.1-0.2c-1.1,0.2-2.1,0.8-2.9,1.5c-0.6,0.5-1.2,1.1-1.7,1.7c-0.5,0.8-1,1.6-1.3,2.5c-0.4,1-0.6,2-1,3.1
		c-0.4,1.2-1.1,2.3-2,3.1c-1.1,0.8-2.5,1.3-3.9,1.4c-1.4,0.2-2.9,0.4-4,1.4c-1,1.1-1.4,2.7-1,4.2c0.4,1.6,1.3,3,2.6,3.9
		c1.4,1,3,1.6,4.7,1.6c0.9,0,1.7-0.1,2.6-0.4c0.8-0.3,1.6-0.8,2.4-1.3c0.7-0.5,1.5-0.9,2.3-1.3c0.9-0.4,2-0.5,3-0.2
		c1,0.4,1.8,1,2.4,1.8c0.6,0.8,1.1,1.6,1.6,2.5c0.5,0.8,1.1,1.6,1.8,2.2c0.7,0.6,1.6,0.9,2.5,0.8c0.9-0.2,1.6-0.7,2-1.5
		c0.4-0.8,0.6-1.7,0.7-2.6c0.1-1.8-0.3-3.7,0.1-5.5c0.2-0.9,0.7-1.7,1.4-2.4c0.7-0.6,1.4-1,2.3-1.4c0.8-0.4,1.6-0.7,2.3-1
		c0.7-0.4,1.3-0.8,1.9-1.5c0.5-0.5,0.9-1.2,1-2c0-0.3,0-0.7-0.2-1c-0.1-0.3-0.4-0.6-0.6-0.8c-0.6-0.4-1.3-0.7-2-0.7
		c-0.7-0.1-1.4-0.1-2.1-0.1c-0.7,0-1.4-0.1-2.1-0.4c-0.7-0.2-1.3-0.7-1.6-1.3c-0.5-1.1-0.8-2.4-0.8-3.6c0-1.1-0.4-2.1-1.1-3
		c-1.1-1.4-2.8-2.1-4.5-1.9c-1.1,0.1-2.1,0.6-2.9,1.4C128.6,288.3,128.3,288.6,128.1,288.9z"/>
	<path class="st6" d="M111.3,272.1c-0.6,0.6-1.3,0.9-2.1,1c-0.8,0.2-1.7,0.2-2.5,0c-1.1-0.2-2-0.7-2.7-1.6c-0.6-0.9-0.9-1.9-1-3
		c-0.1-0.8,0-1.7,0.2-2.5c0.1-0.8,0.5-1.5,1.1-2c-0.3,0.7-0.6,1.4-0.7,2.1c-0.1,0.8-0.2,1.6-0.1,2.4c0.1,1,0.4,1.9,0.9,2.7
		c0.6,0.7,1.5,1.2,2.4,1.4c0.8,0.2,1.6,0.2,2.4,0.1C109.9,272.6,110.6,272.4,111.3,272.1z"/>
	<path class="st6" d="M154.3,269.5c0,0,0,0.1-0.1,0.3c-0.1,0.3-0.2,0.5-0.4,0.7c-0.6,0.8-1.5,1.4-2.5,1.7c-0.7,0.2-1.4,0.2-2.1,0
		c-0.8-0.2-1.5-0.6-2.1-1.1c-0.6-0.6-1.3-1-2.1-1.3c-0.8-0.2-1.7,0.1-2.1,0.8c-0.5,0.8-0.9,1.6-1.2,2.4c-0.4,0.8-1,1.5-1.8,2
		c-2.2,1.5-5.1,0.9-6.6-1.3c0-0.1-0.1-0.1-0.1-0.2c-0.2-0.3-0.4-0.6-0.4-1c0,0,0.2,0.4,0.6,0.9c0.6,0.8,1.4,1.4,2.3,1.7
		c2.2,0.7,4.6-0.3,5.6-2.4c0.4-0.9,0.8-1.7,1.3-2.5c0.3-0.4,0.7-0.8,1.2-1c0.5-0.2,1-0.2,1.5-0.1c0.8,0.3,1.6,0.8,2.3,1.4
		c0.6,0.5,1.2,0.9,1.9,1.1c0.6,0.1,1.3,0.1,1.9,0c0.9-0.2,1.8-0.7,2.4-1.4C154.1,269.9,154.3,269.5,154.3,269.5z"/>
	<path class="st6" d="M161.4,308.8c-0.4-0.2-0.8-0.4-1.1-0.7c-1-0.7-1.9-1.5-2.7-2.4c-0.6-0.6-1.1-1.3-1.6-2c-0.5-0.8-0.9-1.8-1-2.8
		c-0.2-1.1,0-2.2,0.5-3.2c0.3-0.5,0.7-1,1.1-1.3c0.5-0.3,1-0.7,1.5-0.9c0.5-0.3,0.9-0.6,1.3-1c0.4-0.4,0.6-0.8,0.8-1.3
		c0.2-1,0.3-2,0.1-3c-0.2-1-0.2-1.9-0.2-2.9c0-0.9,0.3-1.7,0.9-2.4c0.9-0.8,2.1-1.3,3.4-1.4c0.5-0.1,0.9,0.1,1.2,0.5
		c-0.4-0.2-0.8-0.3-1.2-0.3c-1.2,0.1-2.3,0.6-3.1,1.4c-0.5,0.6-0.8,1.4-0.8,2.2c0,0.9,0.1,1.9,0.3,2.8c0.2,1.1,0.2,2.2-0.1,3.2
		c-0.2,0.6-0.5,1.1-0.9,1.5c-0.4,0.4-0.9,0.8-1.4,1c-1,0.4-1.8,1.2-2.4,2.1c-0.5,0.9-0.6,1.9-0.5,2.9c0.3,1.7,1.1,3.3,2.4,4.5
		C160,307.6,161.5,308.7,161.4,308.8z"/>
	<path class="st6" d="M140.5,328.6c0.2,0,0.3,0,0.5,0c0.4,0,0.9,0,1.3,0.1c1.7,0.2,3.3,0.6,4.7,1.4c2.3,1.1,3.9,3.2,4.5,5.7
		c0.3,1.5,0.1,3-0.6,4.3c-0.8,1.4-2.2,2.4-3.8,2.8c-0.8,0.1-1.6,0.1-2.4-0.1c-0.7-0.2-1.4-0.2-2.1,0c-0.6,0.3-1.2,0.7-1.6,1.3
		c-0.4,0.5-0.8,1.1-1.1,1.7c-0.5,1.2-1.5,2.3-2.6,3c-1.1,0.5-2.3,0.7-3.4,0.4c-1-0.2-1.8-0.8-2.4-1.6c-0.4-0.6-0.8-1.2-0.9-1.9
		c-0.1-0.4-0.1-0.9-0.1-1.4c0-0.2,0-0.3,0.1-0.5c0,0.6,0,1.2,0.2,1.8c0.2,0.7,0.5,1.3,0.9,1.8c0.6,0.7,1.3,1.1,2.2,1.3
		c1.1,0.2,2.2,0.1,3.1-0.4c1.1-0.7,1.9-1.7,2.4-2.8c0.6-1.4,1.7-2.5,3-3.2c0.8-0.3,1.6-0.3,2.4,0c0.7,0.2,1.5,0.3,2.2,0.1
		c1.4-0.3,2.7-1.3,3.4-2.6c0.7-1.2,0.9-2.6,0.6-4c-0.5-2.3-2.1-4.3-4.2-5.5c-1.4-0.8-3-1.3-4.6-1.5
		C141.2,328.7,140.5,328.7,140.5,328.6z"/>
	<path class="st6" d="M121.8,361.7c-0.2-0.7-0.5-1.4-0.9-2.1c-0.5-0.6-1.1-1.2-1.9-1.5c-1.8-0.9-4-0.3-5.2,1.4
		c-0.5,0.7-0.8,1.4-0.9,2.2c-0.1,0.8,0,1.5,0.2,2.3c0,0-0.2-0.2-0.3-0.5c-0.2-0.6-0.3-1.1-0.3-1.7c0.1-0.9,0.3-1.7,0.8-2.5
		c1.2-2,3.7-2.7,5.8-1.5c0.8,0.4,1.5,1,2,1.7c0.3,0.5,0.5,1,0.6,1.6C121.9,361.4,121.8,361.7,121.8,361.7z"/>
	<path class="st6" d="M125,376.2c0,0-0.1-0.5-0.4-1.2c-0.5-1.1-1.3-1.9-2.4-2.5c-1.6-0.7-3.4-0.6-4.9,0.4c-0.8,0.6-1.5,1.4-2,2.3
		c-0.3,0.5-0.7,0.9-1.1,1.3c-0.5,0.4-1.1,0.6-1.8,0.6c-1.2-0.2-2.3-0.8-3-1.8c-0.6-0.8-1.3-1.6-2.1-2.2c-0.8-0.5-1.7-0.6-2.6-0.5
		c-0.8,0.1-1.5,0.4-2.2,0.9c-0.9,0.7-1.7,1.6-2.3,2.6c-0.2,0.4-0.4,0.8-0.7,1.1c0.1-0.4,0.3-0.8,0.5-1.2c0.5-1.1,1.3-2.1,2.3-2.9
		c0.7-0.5,1.5-0.9,2.3-1c1-0.2,2,0,2.9,0.5c0.9,0.6,1.6,1.4,2.3,2.3c0.6,0.9,1.6,1.5,2.6,1.6c1.1,0,1.9-0.9,2.5-1.7
		c0.6-0.9,1.3-1.7,2.2-2.4c2.4-1.6,5.6-1,7.2,1.4c0.2,0.3,0.4,0.7,0.5,1c0.1,0.3,0.2,0.7,0.3,1C125,376.1,125,376.2,125,376.2z"/>
	<path class="st6" d="M132.7,339.9c-0.9-0.6-1.9-1-2.9-1.3c-1.1-0.3-2.2-0.3-3.4-0.2c-1.4,0.2-2.7,0.7-3.8,1.5
		c-1.1,0.8-1.9,2-2.4,3.3c-0.4,1.1-0.5,2.2-0.4,3.3c0.2,1,0.5,2,1.1,2.9c0,0-0.3-0.2-0.6-0.7c-0.4-0.7-0.7-1.4-0.9-2.2
		c-0.4-2.7,0.7-5.4,2.8-7c1.2-0.9,2.6-1.4,4-1.5c1.2-0.1,2.4,0,3.5,0.3c0.8,0.2,1.5,0.5,2.1,1C132.5,339.7,132.7,339.9,132.7,339.9z
		"/>
</g>
</svg>
