<?xml version="1.0" encoding="utf-8"?>
<!-- Generator: Adobe Illustrator 24.2.0, SVG Export Plug-In . SVG Version: 6.00 Build 0)  -->
<svg version="1.1" id="Layer_1" xmlns="http://www.w3.org/2000/svg" xmlns:xlink="http://www.w3.org/1999/xlink" x="0px" y="0px"
	 viewBox="0 0 1122 1122" style="enable-background:new 0 0 1122 1122;" xml:space="preserve">
<style type="text/css">
	.st0{fill:#FFFFFF;}
	.st1{fill:none;}
	.st2{fill:#092E53;}
	.st3{fill:#F41A2D;}
</style>
<g id="Bg">
	<rect class="st0" width="1122" height="1122"/>
</g>
<g id="Object">
	<g>
		<path class="st1" d="M710.3,447.9c-65.6-4.9-245.7-47-245.7-47c-10.9,19.4-39.4,44-61.7,59.8c-0.8,3.5-1.6,6.9-2.1,10.4
			c-1.2,7.6-2,15.4-2,23.3c0,5.6,0.4,11.2,1,16.7c1,9.4,3,18.5,5.7,27.4c19.9,64.6,82,111.9,155.5,111.9
			c73.5,0,135.6-47.3,155.5-111.9c2.7-8.8,4.7-18,5.8-27.4c0.6-5.5,1-11.1,1-16.7c0-7.9-0.8-15.7-2-23.3c-1.3-7.9-3.2-15.5-5.6-23
			C713.9,448.1,712.2,448.1,710.3,447.9z M711.1,475l-15,53.7c-0.8,2.8-3.3,4.7-6.2,4.7h-89.1c-3.1,0-5.7-2.2-6.3-5.2l-6.2-30.9
			c-1.4-2-4-4-8.2-5.7c-5.1-2-12-3.2-18.8-3.1c-6.9,0-13.9,1.2-19.1,3.2c-4.2,1.6-7,3.7-8.4,5.7l-6.1,30.8c-0.6,3-3.3,5.2-6.3,5.2
			h-89.1c-2.9,0-5.4-1.9-6.2-4.7l-15-53.7c-0.5-2-0.1-4,1.1-5.6c1.2-1.6,3.1-2.5,5.2-2.5H532c1.9,0,3.8,0.9,5,2.4
			c1.2,1.5,1.7,3.4,1.3,5.3l-1,4.8c7.2-2.8,15.5-4.1,23.9-4.1c8.2,0,16.3,1.3,23.4,4l-0.9-4.7c-0.4-1.9,0.1-3.8,1.3-5.3
			c1.2-1.5,3.1-2.4,5-2.4h114.9c2,0,3.9,0.9,5.1,2.5C711.2,471,711.7,473.1,711.1,475z"/>
		<path class="st1" d="M524.1,479.7h-98.6l11.4,40.8h79l5.3-26.3l-0.7-0.3c0.3-0.7,0.8-1.3,1.1-2L524.1,479.7z"/>
		<path class="st1" d="M372.5,465.5c-9,1.4-16,8.9-16,17.9v14.4c0,9.3,7.2,16.8,16.4,18.1c-0.9-7.1-1.4-14.2-1.4-21.5
			c0-6.3,0.5-12.4,1.3-18.5C372.7,472.4,372.6,469,372.5,465.5z"/>
		<path class="st1" d="M606,520.5h79l11.4-40.8h-98.6l2.4,12.2c0.4,0.7,0.9,1.3,1.2,2.1l-0.7,0.3L606,520.5z"/>
		<path class="st1" d="M765.5,497.8v-14.4c0-8.5-6.1-15.4-14.1-17.5c-0.7,2.6-1.5,5.1-2.3,7.7c0.9,6.8,1.5,13.7,1.5,20.8
			c0,7.3-0.6,14.5-1.4,21.5C758.3,514.7,765.5,507.1,765.5,497.8z"/>
		<path class="st2" d="M293,815.6v79h536v-79c0-89.9-74.3-162.7-165.9-162.7h-8.9c43.3-23.7,76-63.2,89.4-110.4h2.7
			c25.6,0,46.4-20,46.4-44.7v-14.4c0-21.4-15.7-39.1-36.5-43.5c0.7-6.4,1.2-12.9,1.2-19.5l-0.1-1.9c0-4.7-0.1-9.6-0.8-14.9v0
			c-2.9-30.4-13.5-58.6-29.8-82.6c-8.5-12.3-18.5-23.5-29.7-33.3c-30-26.2-68.9-42.4-111.6-43.5l-2.2-1.7c-1.8-2-3.9-2.4-5.2-2.4
			c-3.2,0-5.4,2.1-7.3,3.9h-0.6c-10.3-10.3-18.1-16.7-24.7-16.7h0c-6.3,0.5-36.1,11-45.6,18.2c-2.1,1.6-4.5,3.6-7,5.9
			c-73,21.5-126.3,89-126.3,169c0,1.2,0.1,2.4,0.1,3.6c-0.1,5.4,0.1,10.7,0.6,15.9c-21.7,3.8-38.2,21.6-38.2,43.5v14.4
			c0,24.6,20.8,44.7,46.4,44.7h2.7c13.4,47.2,46.2,86.7,89.4,110.4h-8.9C367.3,652.9,293,725.8,293,815.6z M751.4,465.9
			c8.1,2.1,14.1,9.1,14.1,17.5v14.4c0,9.3-7.2,16.8-16.4,18.1c0.9-7.1,1.4-14.2,1.4-21.5c0-7.1-0.6-14-1.5-20.8
			C749.8,471.1,750.6,468.5,751.4,465.9z M356.5,497.8v-14.4c0-9.1,7-16.5,16-17.9c0.1,3.5,0.2,7,0.3,10.5
			c-0.8,6.1-1.3,12.2-1.3,18.5c0,7.3,0.6,14.5,1.4,21.5C363.7,514.7,356.5,507.1,356.5,497.8z M561,745.6c-48.6,0-88-39.4-88-88
			c0-0.7,0.1-1.2,0.1-1.8c3.6,1.8,7.1,3.6,10.8,5.2c23.6,10.2,49.7,15.8,77.2,15.8c27.5,0,53.6-5.7,77.1-15.8
			c3.7-1.6,7.3-3.3,10.8-5.1c0,0.6,0.1,1.1,0.1,1.8C649,706.2,609.6,745.6,561,745.6z M405.5,538.6c-2.7-8.9-4.7-18-5.7-27.4
			c-0.6-5.5-1-11.1-1-16.7c0-7.9,0.8-15.7,2-23.3c0.5-3.5,1.3-7,2.1-10.4c22.3-15.8,50.7-40.4,61.7-59.8c0,0,180.1,42.2,245.7,47
			c1.9,0.1,3.7,0.2,5.4,0.2c2.4,7.5,4.3,15.1,5.6,23c1.2,7.6,2,15.3,2,23.3c0,5.6-0.4,11.2-1,16.7c-1.1,9.4-3,18.5-5.8,27.4
			c-19.8,64.6-82,111.9-155.5,111.9C487.5,650.4,425.3,603.1,405.5,538.6z"/>
		<path class="st0" d="M483.9,660.8c0.9,20,9.2,38.1,22.5,51.4c14,14,33.3,22.7,54.7,22.7c21.4,0,40.7-8.6,54.7-22.7
			c13.3-13.3,21.6-31.3,22.5-51.4c-23.6,10.2-49.7,15.8-77.1,15.8C533.5,676.7,507.4,671,483.9,660.8z"/>
		<path class="st3" d="M615.7,712.2c-14,14-33.3,22.7-54.7,22.7c-21.4,0-40.7-8.6-54.7-22.7c-13.3-13.3-21.6-31.3-22.5-51.4
			c-3.7-1.6-7.3-3.3-10.8-5.2c0,0.6-0.1,1.1-0.1,1.8c0,48.6,39.4,88,88,88c48.6,0,88-39.4,88-88c0-0.7-0.1-1.2-0.1-1.8
			c-3.5,1.8-7.1,3.5-10.8,5.1C637.3,680.9,628.9,698.9,615.7,712.2z"/>
		<path class="st3" d="M537,469.2c-1.2-1.5-3.1-2.4-5-2.4H417.1c-2,0-3.9,0.9-5.2,2.5c-1.2,1.6-1.6,3.7-1.1,5.6l15,53.7
			c0.8,2.8,3.3,4.7,6.2,4.7h89.1c3.1,0,5.7-2.2,6.3-5.2l6.1-30.8c1.4-1.9,4.1-4.1,8.4-5.7c5.2-2,12.2-3.2,19.1-3.2
			c6.9,0,13.7,1.1,18.8,3.1c4.1,1.6,6.8,3.7,8.2,5.7l6.2,30.9c0.6,3,3.2,5.2,6.3,5.2h89.1c2.9,0,5.4-1.9,6.2-4.7l15-53.7
			c0.5-2,0.1-4-1.1-5.6c-1.2-1.6-3.1-2.5-5.1-2.5H590c-1.9,0-3.8,0.9-5,2.4c-1.2,1.5-1.7,3.4-1.3,5.3l0.9,4.7
			c-7.1-2.7-15.2-4-23.4-4c-8.3,0-16.6,1.3-23.9,4.1l1-4.8C538.7,472.6,538.2,470.7,537,469.2z M521.7,492c-0.4,0.7-0.8,1.2-1.1,2
			l0.7,0.3l-5.3,26.3h-79l-11.4-40.8h98.6L521.7,492z M696.4,479.7L685,520.5h-79l-5.3-26.3l0.7-0.3c-0.3-0.8-0.8-1.4-1.2-2.1
			l-2.4-12.2L696.4,479.7L696.4,479.7z"/>
	</g>
</g>
</svg>
